<svg width="20" height="20" viewBox="0 0 20 20" fill="none" xmlns="http://www.w3.org/2000/svg">
<path d="M18.7859 7.06753L12.9325 1.21419C11.3167 -0.401639 8.68419 -0.401639 7.06836 1.21419L1.21419 7.06753C-0.401639 8.68419 -0.401639 11.315 1.21419 12.9317L7.06753 18.785C7.87586 19.5934 8.93753 19.9967 10 19.9967C11.0625 19.9967 12.1242 19.5934 12.9325 18.785L18.7859 12.9317C20.4017 11.315 20.4017 8.68419 18.7859 7.06753ZM17.6075 11.7534L11.7542 17.6067C10.7875 18.5717 9.21336 18.5717 8.24669 17.6067L2.39253 11.7534C1.42669 10.7867 1.42669 9.21253 2.39253 8.24586L8.24669 2.39253C9.21336 1.42586 10.7875 1.42586 11.7542 2.39253L17.6075 8.24586C18.5734 9.21253 18.5734 10.7867 17.6075 11.7534ZM14.2734 7.39836C15.2484 8.37336 15.2484 9.95836 14.2734 10.9334L12.2559 12.9509C12.0934 13.1134 11.88 13.195 11.6667 13.195C11.4534 13.195 11.24 13.1134 11.0775 12.9509C10.7517 12.625 10.7517 12.0984 11.0775 11.7725L12.8509 9.99919H9.16669C8.70669 9.99919 8.33336 10.3725 8.33336 10.8325V13.3325C8.33336 13.7934 7.96086 14.1659 7.50003 14.1659C7.03919 14.1659 6.66669 13.7934 6.66669 13.3325V10.8325C6.66669 9.45419 7.78836 8.33253 9.16669 8.33253H12.8509L11.0775 6.55919C10.7517 6.23336 10.7517 5.70669 11.0775 5.38086C11.4034 5.05503 11.93 5.05503 12.2559 5.38086L14.2734 7.39836Z" fill="#27AE60"/>
</svg>
