<svg width="20" height="20" viewBox="0 0 20 20" fill="none" xmlns="http://www.w3.org/2000/svg">
<g clip-path="url(#clip0_536_2)">
<path d="M10 0.0350342C7.79495 0.0374601 5.68089 0.91443 4.12161 2.47356C2.56232 4.03269 1.68514 6.14665 1.6825 8.3517C1.6825 10.4934 3.34083 13.845 6.61166 18.3134C7.00105 18.8468 7.51088 19.2808 8.09966 19.58C8.68845 19.8791 9.33956 20.0351 10 20.0351C10.6604 20.0351 11.3115 19.8791 11.9003 19.58C12.4891 19.2808 12.9989 18.8468 13.3883 18.3134C16.6592 13.845 18.3175 10.4934 18.3175 8.3517C18.3149 6.14665 17.4377 4.03269 15.8784 2.47356C14.3191 0.91443 12.205 0.0374601 10 0.0350342ZM10 11.6667C9.34072 11.6667 8.69626 11.4712 8.14809 11.1049C7.59993 10.7387 7.17269 10.2181 6.9204 9.60898C6.6681 8.99989 6.60209 8.32967 6.73071 7.68307C6.85933 7.03646 7.1768 6.44252 7.64297 5.97635C8.10915 5.51017 8.70309 5.1927 9.34969 5.06408C9.9963 4.93547 10.6665 5.00148 11.2756 5.25377C11.8847 5.50606 12.4053 5.9333 12.7716 6.48147C13.1378 7.02963 13.3333 7.6741 13.3333 8.33337C13.3333 9.21742 12.9821 10.0653 12.357 10.6904C11.7319 11.3155 10.8841 11.6667 10 11.6667Z" fill="#27AE60"/>
</g>
<defs>
<clipPath id="clip0_536_2">
<rect width="20" height="20" fill="white"/>
</clipPath>
</defs>
</svg>
