<svg width="384" height="384" viewBox="0 0 384 384" fill="none" xmlns="http://www.w3.org/2000/svg">
<path d="M94.4641 79.4881L251.136 238.272L192.48 301.056L43.2001 142.368L79.2001 79.4881H94.4641ZM356.832 139.392L311.136 67.7761C309.6 65.4721 307.296 64.1281 304.704 64.1281H192C187.68 64.1281 184.416 67.6801 184.416 71.8081C184.416 76.1281 187.68 79.4881 192 79.4881H300.384L340.704 142.56L261.6 227.136L103.104 66.5281C101.76 64.9921 99.8401 64.1281 97.8241 64.1281C97.4401 64.1281 97.3441 64.1281 97.1521 64.3201C96.8641 64.1281 96.6721 64.1281 96.4801 64.1281H74.6881C72.0961 64.1281 69.6001 65.6641 68.0641 67.9681L27.0721 139.776C25.3441 142.56 25.7281 146.208 28.0321 148.704L187.008 317.472C188.352 319.008 190.368 319.872 192.48 319.872C192.672 319.872 192.864 319.872 193.056 319.872C194.88 319.872 196.704 319.008 198.144 317.472L355.968 148.704C358.368 146.208 358.656 142.272 356.832 139.392Z" fill="#D9D9D9"/>
<path fill-rule="evenodd" clip-rule="evenodd" d="M235.392 230.496H131.904L192.864 295.296L244.704 239.904L235.392 230.496Z" fill="#7E7E7E"/>
<path d="M201.12 136.416C210.77 136.416 218.592 128.594 218.592 118.944C218.592 109.295 210.77 101.472 201.12 101.472C191.471 101.472 183.648 109.295 183.648 118.944C183.648 128.594 191.471 136.416 201.12 136.416Z" fill="#4B89E7"/>
<path d="M142.464 192.288C152.114 192.288 159.936 184.466 159.936 174.816C159.936 165.166 152.114 157.344 142.464 157.344C132.815 157.344 124.992 165.166 124.992 174.816C124.992 184.466 132.815 192.288 142.464 192.288Z" fill="#4B89E7"/>
</svg>
