<svg width="346" height="255" viewBox="0 0 346 255" fill="none" xmlns="http://www.w3.org/2000/svg">
<path d="M198.248 58.0719C204.2 51.9279 207.944 43.6719 207.944 34.3599C207.944 15.9279 193.064 0.951904 174.536 0.951904C163.016 0.951904 152.744 6.9039 146.792 16.1199C145.064 17.5599 12.104 181.528 10.952 183.448C4.80796 189.592 1.06396 197.848 1.06396 207.16C1.06396 225.592 15.944 240.568 34.472 240.568C46.184 240.568 56.456 234.52 62.408 225.4C63.944 223.96 197 59.8959 198.248 58.0719Z" fill="black"/>
<path d="M275.336 135.832C281.288 129.688 285.032 121.528 285.032 112.12C285.032 93.688 270.056 78.808 251.624 78.808C239.912 78.808 229.64 84.76 223.688 93.88C222.152 95.416 152.168 181.528 151.112 183.448C144.872 189.592 141.224 197.848 141.224 207.16C141.224 225.592 156.104 240.568 174.536 240.568C186.344 240.568 196.616 234.52 202.568 225.4C204.008 223.96 273.992 137.752 275.336 135.832Z" fill="#00A859"/>
<path d="M208.136 33.3999C208.136 51.9279 193.256 66.8079 174.728 66.8079C156.296 66.8079 141.32 51.9279 141.32 33.3999C141.32 14.9679 156.296 -0.00805664 174.728 -0.00805664C193.256 -0.00805664 208.136 14.9679 208.136 33.3999Z" fill="#00A859"/>
<path d="M208.136 207.832C208.136 226.36 193.256 241.24 174.728 241.24C156.296 241.24 141.32 226.36 141.32 207.832C141.32 189.4 156.296 174.52 174.728 174.52C193.256 174.52 208.136 189.4 208.136 207.832Z" fill="#D9D9D9"/>
<path d="M134.504 136.408C140.456 130.264 144.2 122.008 144.2 112.696C144.2 94.264 129.224 79.288 110.792 79.288C99.1758 79.288 88.9038 85.336 82.9518 94.456C81.3198 95.896 11.5278 182.104 10.1838 184.024C4.23179 190.168 0.487793 198.328 0.487793 207.736C0.487793 226.168 15.4638 241.048 33.8958 241.048C45.5118 241.048 55.6878 235.096 61.7358 225.976C63.3678 224.44 133.16 138.328 134.504 136.408Z" fill="#00A859"/>
<path fill-rule="evenodd" clip-rule="evenodd" d="M333.32 158.104C347.528 169.816 349.544 190.936 338.024 205.048L307.976 241.624C296.36 256.024 275.336 258.04 261.128 246.52C246.824 234.712 244.712 213.688 256.328 199.48L286.376 162.904C297.896 148.504 319.016 146.488 333.32 158.104Z" fill="#D9D9D9" stroke="#373435" stroke-width="0.666708"/>
</svg>
