<svg width="114" height="50" viewBox="0 0 114 50" fill="none" xmlns="http://www.w3.org/2000/svg">
<g clip-path="url(#clip0_34_48)">
<path fill-rule="evenodd" clip-rule="evenodd" d="M41.088 36.48C40.416 35.52 40.128 34.272 39.84 33.024L38.208 34.176C33.504 37.44 29.184 41.376 23.136 41.376C18.24 41.376 14.4 39.168 11.712 36.864C11.04 36.288 10.464 35.52 9.984 34.752C9.312 33.984 8.832 33.12 8.352 32.256C1.824 18.912 15.84 3.45598 30.336 10.752C31.008 11.04 32.928 12.384 35.232 13.92C36.384 13.44 37.44 12.864 38.208 12C38.88 11.136 39.168 9.98398 39.456 8.73598L35.52 6.04798C20.352 -4.22402 0 7.10398 0 24.96C0 40.992 15.36 51.168 28.992 47.232C33.6 45.888 39.072 42.048 43.872 38.496C43.104 38.208 41.856 37.536 41.088 36.48Z" fill="#E74C3C"/>
<path fill-rule="evenodd" clip-rule="evenodd" d="M82.9441 11.04C93.8881 4.41599 109.632 14.016 106.752 28.416C106.464 29.76 106.272 30.432 105.792 31.584C102.624 39.36 92.2561 44.16 83.4241 39.456C82.4641 38.976 81.4081 38.208 80.5441 37.536L79.9681 37.152C79.7761 38.496 79.5841 39.84 78.8161 40.704C77.9521 41.664 76.4161 42.144 75.5521 42.336C77.9521 43.968 79.9681 45.216 80.8321 45.696C85.7281 48.096 91.2001 48.768 96.5761 47.328C106.176 44.736 113.76 35.904 113.76 26.592C113.76 22.176 113.664 19.392 111.648 15.264C109.344 10.656 105.984 7.10399 101.376 4.70399C99.4561 3.74399 95.9041 2.39999 93.3121 2.30399C86.3041 1.91999 82.8481 2.97599 77.2801 6.71999L71.0401 10.848L70.0801 11.52C71.1361 12 72.1921 12.576 72.8641 13.344C73.7281 14.304 74.0161 15.648 74.1121 16.416C74.2081 16.608 74.2081 16.8 74.2081 16.896L82.9441 11.04Z" fill="#25AE60"/>
<path fill-rule="evenodd" clip-rule="evenodd" d="M68.9281 40.8L52.5121 29.472C47.8081 26.304 48.9601 26.88 42.6241 31.104L39.8401 33.024C40.1281 34.272 40.4161 35.52 41.0881 36.48C41.8561 37.536 43.1041 38.208 43.8721 38.496C45.6001 37.248 47.3281 36 48.7681 34.944C50.7841 36.672 64.2241 45.696 67.3921 47.904C69.3121 49.248 69.1201 49.536 71.3281 49.536C73.0561 49.536 76.6081 46.08 72.0961 43.008C71.5201 42.624 71.2321 42.336 70.5601 41.856C69.8881 41.472 69.5041 41.28 68.9281 40.8Z" fill="#F58634"/>
<path fill-rule="evenodd" clip-rule="evenodd" d="M58.3679 30.24C61.0559 32.064 69.6959 38.304 75.5519 42.336C76.4159 42.144 77.9519 41.664 78.8159 40.704C79.5839 39.84 79.7759 38.496 79.9679 37.152L77.7599 35.616C76.7999 34.848 75.8399 34.272 74.8799 33.6L66.5279 27.744C62.7839 25.056 59.1359 22.56 55.2959 19.872C53.3759 18.528 51.5519 17.184 49.7279 15.936L45.5039 12.96C44.9279 12.576 44.5439 12.288 43.9679 11.904L39.4559 8.73602C39.1679 9.98402 38.8799 11.136 38.2079 12C37.4399 12.864 36.3839 13.44 35.2319 13.92C38.8799 16.416 43.2959 19.584 44.4479 20.448L58.3679 30.24Z" fill="#16ACE3"/>
<path fill-rule="evenodd" clip-rule="evenodd" d="M50.4 13.632C52.512 15.072 62.976 22.464 64.704 22.464C66.336 22.464 69.504 19.968 70.944 19.008L74.208 16.896L74.112 16.416C74.016 15.648 73.728 14.304 72.864 13.344C72.192 12.576 71.136 12 70.08 11.52L67.872 12.96C66.912 13.632 65.856 14.4 64.704 14.976C62.88 14.016 47.424 3.552 44.544 1.632C43.008 0.672 42.72 0 40.608 0C39.264 0 37.728 1.536 37.728 2.976C37.728 5.952 40.128 6.816 43.584 9.12L50.4 13.632Z" fill="#E0E0E0"/>
<path fill-rule="evenodd" clip-rule="evenodd" d="M67.2 10.176C66.816 10.464 66.624 10.848 66.624 11.232C66.624 11.52 66.624 12 66.912 12.288L73.152 19.296C73.632 19.776 74.592 19.872 75.168 19.392C75.552 19.008 75.552 18.816 75.744 18.336L76.608 15.648C76.992 14.4 77.472 13.152 77.856 12C77.856 11.808 77.952 11.712 77.952 11.616C78.048 11.52 78.048 11.424 78.048 11.328L78.432 10.272C78.432 10.176 78.528 10.08 78.528 9.98402C78.528 9.79202 78.624 9.79202 78.624 9.60002V9.50402C78.624 8.73602 78.048 8.16002 77.376 8.06402C77.088 7.96802 77.28 7.96802 76.992 7.96802C76.896 7.96802 76.896 7.96802 76.8 8.06402L74.784 8.44802C73.92 8.64002 72.864 8.83202 72 9.02402L68.544 9.69602C68.064 9.79202 67.488 9.88802 67.2 10.176Z" fill="#E0E0E0"/>
<path d="M10.5601 38.4L7.68008 40.704L5.95208 38.592L6.43208 38.208L7.68008 39.744L8.35208 39.264L7.20008 37.824L7.68008 37.44L8.83208 38.88L9.60008 38.208L8.25608 36.672L8.73608 36.288L10.5601 38.4ZM5.18408 37.536L4.51208 36.384C4.41608 36.096 4.32008 35.904 4.22408 35.712C4.22408 35.52 4.22408 35.328 4.32008 35.136C4.32008 34.848 4.41608 34.656 4.60808 34.464C4.80008 34.272 4.99208 34.176 5.28008 33.984C5.56808 33.792 5.85608 33.696 6.04808 33.696C6.33608 33.6 6.52808 33.6 6.81608 33.696C7.00808 33.696 7.10408 33.888 7.29608 33.984C7.48808 34.08 7.58408 34.272 7.68008 34.56L8.35208 35.712L5.18408 37.536ZM5.37608 36.576L7.48808 35.424L7.20008 34.944C7.10408 34.752 7.00808 34.656 7.00808 34.56C6.91208 34.464 6.81608 34.368 6.72008 34.368C6.62408 34.368 6.43208 34.368 6.24008 34.368C6.14408 34.368 5.95208 34.464 5.66408 34.656C5.37608 34.752 5.28008 34.944 5.08808 35.04C4.99208 35.136 4.99208 35.232 4.89608 35.424C4.89608 35.52 4.89608 35.616 4.99208 35.808C4.99208 35.904 5.08808 36.096 5.18408 36.288L5.37608 36.576ZM3.16808 33.696L2.97608 32.928L4.80008 32.352C5.08808 32.256 5.28008 32.16 5.37608 32.064C5.56808 32.064 5.66408 31.872 5.66408 31.776C5.76008 31.584 5.66408 31.488 5.66408 31.296C5.56808 31.104 5.47208 30.912 5.37608 30.912C5.28008 30.816 5.08808 30.72 4.99208 30.816C4.89608 30.816 4.70408 30.912 4.41608 31.008L2.49608 31.584L2.20808 30.912L4.03208 30.336C4.51208 30.144 4.80008 30.048 4.99208 30.048C5.18408 30.048 5.37608 30.048 5.47208 30.144C5.66408 30.144 5.76008 30.24 5.95208 30.432C6.04808 30.528 6.14408 30.72 6.24008 31.008C6.33608 31.392 6.43208 31.584 6.33608 31.872C6.33608 32.064 6.33608 32.16 6.24008 32.352C6.14408 32.448 6.04808 32.544 5.95208 32.64C5.76008 32.736 5.47208 32.928 5.08808 33.024L3.16808 33.696ZM3.93608 26.784L4.03208 26.112C4.41608 26.112 4.80008 26.304 4.99208 26.496C5.28008 26.688 5.37608 27.072 5.47208 27.456C5.47208 27.936 5.37608 28.32 5.08808 28.704C4.80008 28.992 4.41608 29.28 3.84008 29.376C3.26408 29.376 2.68808 29.376 2.40008 29.088C2.01608 28.8 1.72808 28.416 1.63208 27.936C1.63208 27.456 1.72808 27.072 1.92008 26.784C2.01608 26.592 2.20808 26.4 2.49608 26.304L2.78408 26.976C2.59208 27.072 2.49608 27.168 2.40008 27.36C2.30408 27.456 2.30408 27.648 2.30408 27.84C2.40008 28.128 2.49608 28.32 2.68808 28.512C2.88008 28.608 3.26408 28.608 3.64808 28.608C4.12808 28.512 4.41608 28.416 4.60808 28.224C4.80008 28.032 4.80008 27.744 4.80008 27.552C4.80008 27.36 4.70408 27.168 4.51208 27.072C4.41608 26.88 4.22408 26.88 3.93608 26.784ZM5.37608 21.984L5.28008 22.752L4.41608 23.04V24.48L5.28008 24.864L5.18408 25.632L1.63208 24.096V23.328L5.37608 21.984ZM3.84008 23.328L2.49608 23.712L3.84008 24.288V23.328ZM5.56808 21.12L2.68808 20.448L2.40008 21.504L1.82408 21.312L2.49608 18.528L3.07208 18.624L2.78408 19.68L5.76008 20.448L5.56808 21.12ZM6.24008 19.008L2.78408 17.76L2.97608 17.088L6.43208 18.24L6.24008 19.008ZM4.99208 16.896C4.70408 16.8 4.41608 16.608 4.22408 16.416C4.12808 16.224 4.03208 16.032 3.93608 15.84C3.84008 15.648 3.84008 15.456 3.84008 15.264C3.84008 14.976 3.93608 14.784 4.12808 14.496C4.32008 14.016 4.70408 13.728 5.08808 13.536C5.56808 13.44 6.04808 13.44 6.62408 13.728C7.10408 14.016 7.48808 14.4 7.58408 14.784C7.77608 15.264 7.68008 15.744 7.48808 16.224C7.20008 16.704 6.91208 16.992 6.43208 17.088C6.04808 17.28 5.56808 17.184 4.99208 16.896ZM5.37608 16.224C5.66408 16.416 6.04808 16.512 6.33608 16.416C6.62408 16.32 6.81608 16.128 6.91208 15.936C7.00808 15.648 7.10408 15.36 7.00808 15.072C6.81608 14.88 6.62408 14.592 6.24008 14.4C5.85608 14.208 5.56808 14.208 5.28008 14.208C4.99208 14.304 4.80008 14.496 4.70408 14.784C4.51208 15.072 4.51208 15.264 4.60808 15.552C4.70408 15.84 4.99208 16.032 5.37608 16.224ZM8.64008 14.112L5.76008 11.904L6.14408 11.328L9.02408 11.616L7.10408 10.176L7.48808 9.59998L10.3681 11.808L9.98408 12.384L7.10408 12.096L9.02408 13.632L8.64008 14.112Z" fill="#FEFEFE"/>
<path d="M49.728 22.176L52.032 19.296L52.608 19.776L51.744 20.832L52.896 21.792L53.76 20.64L54.336 21.12L52.032 24L51.456 23.52L52.512 22.272L51.36 21.312L50.4 22.656L49.728 22.176ZM52.704 24.288L54.816 21.312L57.024 22.848L56.736 23.424L55.104 22.272L54.624 22.944L56.16 24L55.776 24.48L54.24 23.424L53.664 24.288L55.392 25.44L55.008 25.92L52.704 24.288ZM58.272 28.128L57.6 27.744L57.792 26.88L56.64 26.016L55.872 26.496L55.2 26.112L58.464 23.904L59.136 24.288L58.272 28.128ZM57.984 26.208L58.368 24.768L57.12 25.632L57.984 26.208ZM58.56 28.416L60.576 25.44L61.248 25.824L59.52 28.32L61.056 29.376L60.768 29.856L58.56 28.416ZM61.536 30.432L63.264 27.936L62.4 27.36L62.688 26.784L65.088 28.512L64.704 28.992L63.84 28.416L62.112 30.912L61.536 30.432ZM63.36 31.776L65.472 28.8L66.048 29.184L65.28 30.432L66.432 31.2L67.296 30.048L67.872 30.432L65.76 33.408L65.184 33.024L66.048 31.68L64.896 30.912L63.936 32.16L63.36 31.776Z" fill="#FEFEFE"/>
<path d="M107.52 11.424L108.384 12.672C108.48 12.864 108.576 13.056 108.672 13.248C108.768 13.344 108.768 13.44 108.768 13.632C108.768 13.728 108.768 13.92 108.672 14.016C108.576 14.112 108.48 14.208 108.384 14.304C108.192 14.4 108.096 14.496 107.904 14.496C107.712 14.496 107.52 14.4 107.424 14.304C107.52 14.592 107.52 14.784 107.424 14.976C107.328 15.168 107.232 15.264 107.04 15.36C106.944 15.456 106.752 15.552 106.56 15.552C106.368 15.552 106.272 15.552 106.08 15.552C105.984 15.456 105.792 15.36 105.696 15.168C105.6 15.072 105.408 14.88 105.216 14.496L104.448 13.44L107.52 11.424ZM107.424 12.384L106.752 12.864L107.04 13.248C107.136 13.44 107.232 13.632 107.328 13.632C107.424 13.728 107.52 13.824 107.616 13.824C107.712 13.92 107.808 13.824 107.904 13.824C108 13.728 108 13.632 108.096 13.536C108.096 13.44 108.096 13.344 108 13.248C108 13.152 107.904 13.056 107.712 12.768L107.424 12.384ZM106.272 13.152L105.408 13.728L105.792 14.304C105.888 14.496 105.984 14.592 106.08 14.688C106.176 14.784 106.272 14.784 106.368 14.784C106.464 14.88 106.56 14.784 106.656 14.784C106.752 14.688 106.848 14.592 106.848 14.496C106.848 14.4 106.848 14.304 106.848 14.208C106.848 14.112 106.752 13.92 106.56 13.632L106.272 13.152ZM109.824 15.072L110.112 15.744L108.288 16.608C108 16.704 107.808 16.8 107.712 16.8C107.616 16.896 107.52 16.992 107.52 17.184C107.424 17.28 107.424 17.472 107.52 17.664C107.616 17.856 107.712 17.952 107.808 18.048C108 18.144 108.096 18.144 108.192 18.144C108.384 18.048 108.576 17.952 108.768 17.856L110.688 17.088L110.976 17.76L109.152 18.528C108.768 18.72 108.48 18.816 108.288 18.816C108.096 18.912 108 18.912 107.808 18.816C107.616 18.816 107.52 18.72 107.328 18.528C107.232 18.432 107.136 18.24 106.944 17.952C106.848 17.664 106.752 17.376 106.752 17.184C106.752 16.992 106.848 16.8 106.848 16.704C106.944 16.512 107.04 16.416 107.136 16.32C107.328 16.224 107.616 16.032 108 15.84L109.824 15.072ZM109.056 19.584L109.248 20.256C108.96 20.352 108.864 20.448 108.768 20.64C108.672 20.736 108.672 20.928 108.672 21.12C108.768 21.408 108.864 21.504 108.96 21.696C109.056 21.792 109.152 21.792 109.344 21.792C109.44 21.792 109.44 21.696 109.536 21.6C109.536 21.6 109.632 21.504 109.632 21.312C109.632 21.216 109.632 21.024 109.632 20.736C109.728 20.352 109.728 20.064 109.92 19.872C110.016 19.584 110.208 19.488 110.496 19.392C110.688 19.392 110.88 19.392 111.072 19.488C111.264 19.488 111.456 19.68 111.552 19.776C111.648 19.968 111.744 20.256 111.744 20.544C111.84 20.928 111.84 21.312 111.648 21.6C111.552 21.792 111.264 21.984 110.976 22.08L110.784 21.312C110.976 21.312 111.072 21.216 111.168 21.12C111.168 20.928 111.264 20.832 111.168 20.64C111.168 20.352 111.072 20.256 110.976 20.16C110.88 20.064 110.784 20.064 110.688 20.064C110.592 20.064 110.592 20.16 110.496 20.256C110.496 20.352 110.4 20.544 110.4 20.928C110.4 21.312 110.4 21.6 110.304 21.792C110.208 21.984 110.112 22.08 110.016 22.272C109.92 22.368 109.728 22.464 109.44 22.464C109.248 22.56 109.056 22.464 108.864 22.464C108.672 22.368 108.48 22.176 108.384 21.984C108.192 21.792 108.096 21.6 108.096 21.216C108 20.832 108 20.448 108.192 20.16C108.384 19.872 108.672 19.68 109.056 19.584ZM108.384 23.328L112.032 22.944L112.128 23.712L108.48 24L108.384 23.328ZM108.48 24.768L112.128 25.056V25.728L109.536 27.072L111.936 27.264V27.936L108.288 27.648L108.384 26.88L110.88 25.632L108.48 25.44V24.768ZM108.192 28.416L111.84 29.088L111.36 31.776L110.784 31.584L111.072 29.664L110.304 29.568L110.016 31.392L109.344 31.2L109.728 29.472L108.672 29.28L108.384 31.296L107.712 31.2L108.192 28.416ZM108.672 32.064L108.48 32.736C108.192 32.736 108 32.736 107.904 32.736C107.712 32.832 107.616 33.024 107.52 33.216C107.424 33.408 107.328 33.6 107.424 33.792C107.424 33.888 107.52 33.984 107.616 34.08C107.712 34.08 107.808 34.08 107.904 34.08C108 34.08 108 33.984 108.096 33.888C108.192 33.792 108.288 33.696 108.48 33.408C108.768 33.12 108.96 32.928 109.152 32.832C109.44 32.736 109.728 32.736 110.016 32.832C110.208 32.928 110.304 33.024 110.4 33.216C110.496 33.312 110.592 33.504 110.592 33.792C110.592 33.984 110.496 34.176 110.4 34.464C110.208 34.848 110.016 35.136 109.728 35.328C109.44 35.424 109.152 35.424 108.768 35.328L109.056 34.56C109.248 34.656 109.44 34.656 109.536 34.56C109.632 34.56 109.728 34.368 109.824 34.176C109.92 33.984 109.92 33.792 109.92 33.696C109.92 33.6 109.824 33.504 109.728 33.504C109.728 33.504 109.632 33.504 109.536 33.504C109.44 33.6 109.248 33.696 108.96 33.984C108.768 34.272 108.576 34.56 108.48 34.656C108.288 34.752 108.096 34.848 107.904 34.848C107.712 34.848 107.52 34.848 107.328 34.752C107.136 34.656 107.04 34.56 106.848 34.368C106.752 34.176 106.752 33.984 106.752 33.696C106.752 33.504 106.752 33.216 106.944 32.928C107.136 32.544 107.328 32.256 107.616 32.064C107.904 31.968 108.288 31.968 108.672 32.064ZM107.136 35.424L106.752 36C106.56 35.904 106.368 35.904 106.176 35.904C106.08 36 105.888 36.096 105.792 36.288C105.6 36.48 105.504 36.576 105.6 36.768C105.6 36.96 105.6 37.056 105.696 37.152C105.792 37.152 105.888 37.248 105.984 37.248C106.08 37.152 106.176 37.152 106.272 37.056C106.272 37.056 106.464 36.864 106.752 36.672C107.04 36.48 107.328 36.288 107.52 36.288C107.808 36.192 108.096 36.192 108.288 36.384C108.48 36.48 108.576 36.672 108.672 36.864C108.672 37.056 108.672 37.248 108.672 37.44C108.576 37.632 108.48 37.824 108.384 38.112C108.096 38.496 107.808 38.688 107.52 38.784C107.232 38.784 106.848 38.784 106.656 38.592L107.04 37.92C107.232 38.016 107.328 38.016 107.52 38.016C107.616 38.016 107.712 37.92 107.808 37.728C108 37.536 108 37.344 108 37.248C108 37.152 108 37.056 107.904 36.96C107.808 36.96 107.808 36.96 107.712 36.96C107.52 36.96 107.328 37.152 107.04 37.344C106.752 37.632 106.56 37.728 106.368 37.824C106.272 37.92 106.08 38.016 105.888 37.92C105.696 37.92 105.504 37.92 105.312 37.728C105.12 37.632 105.024 37.44 104.928 37.248C104.832 37.056 104.832 36.864 104.928 36.576C104.928 36.384 105.024 36.096 105.216 35.904C105.504 35.52 105.792 35.328 106.176 35.232C106.464 35.136 106.752 35.232 107.136 35.424Z" fill="#FEFEFE"/>
</g>
<defs>
<clipPath id="clip0_34_48">
<rect width="113.76" height="49.536" fill="white"/>
</clipPath>
</defs>
</svg>
