<svg width="264" height="294" viewBox="0 0 264 294" fill="none" xmlns="http://www.w3.org/2000/svg">
<path fill-rule="evenodd" clip-rule="evenodd" d="M22.6561 158.328L130.56 49.464L70.0801 14.328C60.7681 8.76001 48.1921 0.312012 37.7281 0.312012C26.4001 0.312012 17.9521 3.38401 10.7521 10.584C6.14409 15.192 0.576086 24.312 0.576086 33.336L0.288086 148.248L22.6561 158.328Z" fill="#ED3237"/>
<path fill-rule="evenodd" clip-rule="evenodd" d="M160.8 227.16L0.288191 155.736L0.0961914 259.704C0.0961914 277.176 16.8002 293.4 34.0802 293.688C48.4802 293.688 50.7842 290.136 62.4002 283.608L121.056 249.912C133.824 242.232 147.36 234.84 160.8 227.16Z" fill="#12B85A"/>
<path fill-rule="evenodd" clip-rule="evenodd" d="M29.376 161.304L168.288 222.936C179.616 216.408 191.04 209.88 201.504 203.64C204.288 202.008 206.4 200.856 208.992 199.416C211.776 197.784 213.888 196.632 216.672 195L231.072 186.648L177.12 76.44C165.696 69.624 154.272 62.712 143.808 56.856L136.896 52.92L29.376 161.304Z" fill="#D9D9D9"/>
<path fill-rule="evenodd" clip-rule="evenodd" d="M187.776 82.68L236.832 183.384L238.272 182.424C241.056 181.08 243.36 179.64 245.952 178.008C248.736 176.376 250.176 175.512 252.48 173.208L254.112 171.768C266.4 158.712 267.36 137.784 255.744 124.344C252 120.12 255.264 123.192 249.888 118.776C248.736 117.816 247.776 117.336 246.432 116.376L202.656 91.032C197.76 88.536 192.96 85.752 187.776 82.68Z" fill="#F58634"/>
</svg>
