<svg width="276" height="346" viewBox="0 0 276 346" fill="none" xmlns="http://www.w3.org/2000/svg">
<path fill-rule="evenodd" clip-rule="evenodd" d="M40.08 22.952L39.888 245.288C45.456 246.056 134.256 299.624 137.616 299.912C140.112 300.104 183.696 274.568 186.672 272.84L235.92 245L236.112 135.08L142.992 82.184C136.944 78.536 138.576 78.728 124.272 87.08C117.648 90.728 112.08 94.088 105.744 97.832C99.888 101.192 92.496 104.84 87.408 108.776V216.968L125.424 239.144L125.568 185.288L125.712 131.432C127.152 129.224 131.76 127.304 134.256 125.864C138.864 122.888 139.344 124.328 143.76 126.824C149.616 130.184 197.136 155.816 197.616 158.504V222.344C190.32 225.992 140.592 255.56 138.384 255.752C135.408 255.752 85.2 225.512 78.384 222.344L78.192 0.967987L40.08 22.952Z" fill="#D9D9D9"/>
<path fill-rule="evenodd" clip-rule="evenodd" d="M87.216 63.176V98.024L126.384 75.56C138.096 69.032 134.928 67.304 146.16 73.64C156.432 79.496 241.776 127.304 244.944 130.184L245.136 249.704L138.384 310.088C137.136 310.088 43.248 257.96 31.056 249.704L30.864 95.336L0.624023 112.136L0.816023 267.464C14.064 275.048 135.888 344.744 137.904 345.032C140.112 345.224 261.936 275.048 275.184 267.464L275.376 112.136C260.496 103.112 244.176 94.664 228.816 85.832L146.448 39.08C141.264 36.104 139.632 33.224 134.256 36.392C118.896 45.608 102 53.864 87.216 63.176Z" fill="#A9A9A9"/>
<path fill-rule="evenodd" clip-rule="evenodd" d="M134.928 169.256H140.112C141.552 169.256 142.512 170.408 142.512 171.656V197.768C142.512 198.92 141.552 200.168 140.112 200.168H134.928C133.776 200.168 132.528 198.92 132.528 197.768V171.656C132.528 170.408 133.776 169.256 134.928 169.256Z" fill="#EAEAEA"/>
</svg>
