<svg width="55" height="37" viewBox="0 0 55 37" fill="none" xmlns="http://www.w3.org/2000/svg">
<path d="M52.422 8.06403H15.5517C14.1732 8.06403 13.0557 9.13855 13.0557 10.464V10.5438C13.0557 11.8693 14.1732 12.9438 15.5517 12.9438H52.422C53.8005 12.9438 54.918 11.8693 54.918 10.5438V10.464C54.918 9.13855 53.8005 8.06403 52.422 8.06403Z" fill="#D9D9D9"/>
<path d="M49.8942 16.128H18.048C16.8816 16.128 15.936 17.2025 15.936 18.528V18.6078C15.936 19.9333 16.8816 21.0078 18.048 21.0078H49.8942C51.0606 21.0078 52.0062 19.9333 52.0062 18.6078V18.528C52.0062 17.2025 51.0606 16.128 49.8942 16.128Z" fill="#D9D9D9"/>
<path d="M46.7646 24.096H21.2158C20.2615 24.096 19.4878 25.1705 19.4878 26.496V26.5758C19.4878 27.9013 20.2615 28.9758 21.2158 28.9758H46.7646C47.719 28.9758 48.4926 27.9013 48.4926 26.5758V26.496C48.4926 25.1705 47.719 24.096 46.7646 24.096Z" fill="#D9D9D9"/>
<path d="M22.4316 0H1.44C0.64471 0 0 1.07452 0 2.4V2.47982C0 3.80531 0.64471 4.87982 1.44 4.87982H22.4316C23.2268 4.87982 23.8716 3.80531 23.8716 2.47982V2.4C23.8716 1.07452 23.2268 0 22.4316 0Z" fill="#087356"/>
<path d="M29.472 36.768C31.0095 36.768 32.256 35.5216 32.256 33.984C32.256 32.4464 31.0095 31.2 29.472 31.2C27.9344 31.2 26.688 32.4464 26.688 33.984C26.688 35.5216 27.9344 36.768 29.472 36.768Z" fill="#D9D9D9"/>
<path d="M38.1121 36.768C39.6496 36.768 40.8961 35.5216 40.8961 33.984C40.8961 32.4464 39.6496 31.2 38.1121 31.2C36.5745 31.2 35.3281 32.4464 35.3281 33.984C35.3281 35.5216 36.5745 36.768 38.1121 36.768Z" fill="#D9D9D9"/>
</svg>
