<svg width="304" height="308" viewBox="0 0 304 308" fill="none" xmlns="http://www.w3.org/2000/svg">
<path d="M186.944 307.504V220.144C186.944 159.472 236.288 110.128 296.96 110.128V197.296C296.96 258.16 247.808 307.504 186.944 307.504Z" fill="#D9D9D9"/>
<path d="M158.912 249.424V123.088C158.912 55.216 103.808 0.303997 36.032 0.303997V126.736C36.032 194.512 90.944 249.424 158.912 249.424Z" fill="#12B85A"/>
<path d="M270.272 52.816C270.272 75.952 251.456 94.48 228.608 94.48C205.472 94.48 186.944 75.952 186.944 52.816C186.944 29.776 205.472 11.152 228.608 11.152C251.456 11.152 270.272 29.776 270.272 52.816Z" fill="#D9D9D9"/>
<path d="M41.696 213.04H0.608032V181.168H41.696V138.16H74.432V181.168H115.616V213.04H74.432V256.144H41.696V213.04Z" fill="white"/>
<path fill-rule="evenodd" clip-rule="evenodd" d="M265.952 299.632C249.92 299.632 236.672 286.576 236.672 270.352C236.672 254.32 249.92 241.072 265.952 241.072C282.176 241.072 295.424 254.32 295.424 270.352C295.424 286.576 282.176 299.632 265.952 299.632ZM303.392 270.352C303.392 249.808 286.688 233.2 265.952 233.2C245.408 233.2 228.8 249.808 228.8 270.352C228.8 291.088 245.408 307.696 265.952 307.696C286.688 307.696 303.392 291.088 303.392 270.352Z" fill="#12B85A"/>
</svg>
