<svg width="378" height="292" viewBox="0 0 378 292" fill="none" xmlns="http://www.w3.org/2000/svg">
<path d="M253.608 134.192L123.72 4.30405C118.152 -1.26395 108.84 -1.26395 103.272 4.30405L4.8718 101.36C-0.696199 107.12 -0.696199 116.24 4.8718 122L33.0958 150.032L149.352 266.096L253.608 167.024C262.536 157.904 262.536 143.408 253.608 134.192Z" fill="#D92A03"/>
<path d="M373.128 112.688L201 285.104C192.072 294.128 177.384 294.128 168.36 285.104L70.9199 187.664C79.9439 196.688 94.6319 196.688 103.56 187.664L275.688 15.248C281.448 9.68002 290.568 9.68002 296.136 15.248L373.128 92.048C378.696 97.808 378.696 106.928 373.128 112.688Z" fill="#16ACE3"/>
<path d="M166.92 76.112C170.856 80.048 174.6 83.6 178.248 86.672C182.856 90.608 183.24 97.808 178.728 102.128L109.128 171.728C98.5679 182.288 81.4799 182.288 71.1119 171.728C60.5519 161.36 60.5519 144.272 71.1119 133.904L140.712 64.112C145.224 59.792 152.232 59.984 156.36 64.592C159.432 68.24 162.984 72.176 166.92 76.112Z" fill="#373435"/>
</svg>
