<svg width="280" height="308" viewBox="0 0 280 308" fill="none" xmlns="http://www.w3.org/2000/svg">
<path fill-rule="evenodd" clip-rule="evenodd" d="M98.432 190.384V138.448C98.432 137.008 100.16 135.376 101.6 135.376H178.496C179.936 135.376 181.568 137.008 181.568 138.448V191.056C181.568 202.576 171.872 212.56 158.816 212.56H121.184C108.608 212.56 98.432 203.056 98.432 190.384ZM120.608 92.368C120.608 73.744 141.44 66.064 153.632 77.872C157.184 81.424 159.488 85.744 159.488 92.368V116.944H120.608V92.368ZM101.984 98.32V116.944C89.312 116.944 79.808 127.312 79.808 140.176V187.504C79.808 207.376 90.848 223.12 107.168 228.496C118.688 232.432 161.312 232.432 172.928 228.496C177.92 226.768 183.872 223.12 187.232 219.952C194.816 212.56 200 202.384 200 187.504V140.176C200 127.312 190.688 116.944 177.92 116.944C177.92 98.128 179.936 80.56 168.8 67.504C153.632 49.552 126.368 49.552 111.296 67.504C104.48 75.568 101.984 83.92 101.984 98.32Z" fill="#B629D9"/>
<path fill-rule="evenodd" clip-rule="evenodd" d="M130.688 166C130.688 173.2 129.44 183.952 132.992 188.08C138.56 194.992 149.312 191.44 149.312 180.88C149.312 169.072 151.808 156.304 139.232 156.304C134.624 156.304 130.688 161.2 130.688 166Z" fill="#D9D9D9"/>
<path fill-rule="evenodd" clip-rule="evenodd" d="M67.616 236.944C58.784 227.632 46.592 208.624 40.352 196.624C39.104 194.32 38.528 192.496 37.28 190C31.616 178.864 27.296 165.616 24.416 151.696H5.40802C11.36 180.304 22.784 205.744 38.528 229.456C41.6 233.872 52.928 248.56 56.672 252.4C62.912 258.64 68.096 264.208 74.72 269.776V244.624C72.608 242.32 70.304 239.824 67.616 236.944Z" fill="#D9D9D9"/>
<path fill-rule="evenodd" clip-rule="evenodd" d="M19.04 102.064V74.608C19.04 69.616 21.344 68.176 25.28 66.928C29.6 65.488 31.232 64.24 34.592 62.608C60.8 48.976 66.176 23.248 69.344 20.848C70.496 19.6 72.224 18.928 74.432 18.928H74.72V0.976013H71.552C53.6 0.976013 50.048 19.6 45.536 27.472C43.232 31.312 40.736 34.672 37.664 37.552C23.168 52.048 15.488 47.248 5.98402 58.48C3.77602 61.168 1.08802 66.736 1.08802 71.44C1.08802 93.808 0.224015 113.008 2.52802 133.744H21.152C19.616 122.992 19.04 112.24 19.04 102.064Z" fill="#D9D9D9"/>
<path fill-rule="evenodd" clip-rule="evenodd" d="M92.672 18.928H205.376C210.56 18.928 211.808 21.424 213.248 24.976C214.304 28.24 215.744 31.6 217.376 34.48C222.368 42.928 228.8 50.608 236.576 56.752V30.736C233.504 26.224 231.68 21.616 229.184 15.664C226.304 8.56001 218.048 0.976013 208.448 0.976013H92.672V18.928Z" fill="#D9D9D9"/>
<path fill-rule="evenodd" clip-rule="evenodd" d="M261.056 73.936C261.056 97.744 261.44 115.696 259.136 133.744H277.568C279.68 114.064 279.008 94.672 279.008 71.44C279.008 62.8 272 54.352 264.128 50.992C260.192 49.36 257.312 48.112 254.432 46.672V66.928C256.928 67.504 261.056 69.04 261.056 73.936Z" fill="#D9D9D9"/>
<path fill-rule="evenodd" clip-rule="evenodd" d="M243.008 189.136C239.264 196.816 238.016 200.08 233.312 208.144C231.872 210.256 231.008 211.888 229.568 214C225.632 220.624 222.176 225.136 217.376 231.184C216.128 232.816 214.688 234.64 213.056 236.272C211.136 238.192 210.56 239.632 208.736 241.456C203.36 246.64 198.56 251.44 194.048 255.568H220.064C222.752 252.688 225.248 250 227.072 247.888L240.704 230.512C245.312 223.888 248.576 218.32 252.512 211.12C258.56 200.368 261.248 193.744 265.568 182.512C269.888 171.76 272.768 161.68 274.88 151.696H255.872C253.568 161.2 250.496 171.376 245.888 182.512C245.12 184.816 244.256 187.12 243.008 189.136Z" fill="#D9D9D9"/>
<path fill-rule="evenodd" clip-rule="evenodd" d="M166.304 276.016C162.176 278.512 144.416 288.88 140.192 288.88C137.312 288.88 129.728 284.752 127.04 283.216C114.368 276.88 103.616 270.064 92.672 261.328V284.08C95.168 285.52 97.856 287.632 101.792 290.128C108.608 294.448 130.688 307.024 137.312 307.024H141.056C143.936 306.832 145.856 306.64 149.792 305.2C163.616 299.824 183.68 287.44 195.296 278.32L201.056 273.52H170.432C168.992 274.384 167.744 275.152 166.304 276.016Z" fill="#D9D9D9"/>
</svg>
