<?xml version="1.0" encoding="UTF-8"?>
<!DOCTYPE svg PUBLIC "-//W3C//DTD SVG 1.1//EN" "http://www.w3.org/Graphics/SVG/1.1/DTD/svg11.dtd">
<!-- Creator: CorelDRAW X7 -->
<svg xmlns="http://www.w3.org/2000/svg" xml:space="preserve" width="7.333in" height="1.75in" version="1.1" style="shape-rendering:geometricPrecision; text-rendering:geometricPrecision; image-rendering:optimizeQuality; fill-rule:evenodd; clip-rule:evenodd"
viewBox="0 0 7333 1750"
 xmlns:xlink="http://www.w3.org/1999/xlink">
 <defs>
  <style type="text/css">
   <![CDATA[
    .fil3 {fill:#16ACE3}
    .fil1 {fill:#25AE60}
    .fil0 {fill:#D92A03}
    .fil2 {fill:#F58634}
    .fil4 {fill:white}
    .fil6 {fill:#FEFEFE;fill-rule:nonzero}
    .fil5 {fill:white;fill-rule:nonzero}
   ]]>
  </style>
 </defs>
 <g id="Layer_x0020_1">
  <metadata id="CorelCorpID_0Corel-Layer"/>
  <g id="_96809360">
   <path class="fil0" d="M1324 1213c-21,-28 -30,-66 -36,-105l-50 35c-145,100 -277,219 -461,219 -151,0 -266,-66 -348,-137 -21,-18 -38,-42 -55,-64 -18,-23 -34,-50 -48,-77 -200,-407 228,-879 671,-656 20,10 79,49 149,98 36,-16 69,-33 90,-59 22,-27 31,-64 38,-102l-118 -82c-465,-311 -1086,32 -1086,580 0,488 468,798 887,678 139,-39 306,-159 452,-265 -23,-11 -61,-31 -85,-63z"/>
   <path class="fil1" d="M2604 435c333,-203 816,91 726,532 -8,40 -16,62 -29,96 -97,238 -414,385 -683,241 -31,-16 -61,-38 -89,-57l-17 -12c-5,41 -12,81 -36,108 -26,29 -73,42 -97,48 0,0 -1,0 -1,0 74,50 133,89 161,102 151,75 316,95 481,51 292,-78 525,-349 525,-633 0,-135 -3,-219 -65,-344 -71,-142 -172,-252 -315,-324 -58,-30 -165,-70 -245,-74 -213,-10 -320,22 -489,134l-192 128 -29 20c34,15 66,31 86,56 25,30 34,71 38,92 1,7 2,12 2,15l268 -179z"/>
   <path class="fil2" d="M2174 1345l-499 -347c-145,-96 -110,-77 -303,50l-84 60c6,39 15,77 36,105 24,32 62,52 85,63 54,-40 105,-77 152,-109 59,52 471,327 569,396 57,40 52,48 117,48 55,0 162,-105 25,-198 -19,-13 -28,-21 -48,-35 -19,-13 -31,-19 -50,-33z"/>
   <path class="fil3" d="M1852 1022c82,57 346,247 526,369 0,0 1,0 1,0 24,-6 71,-19 97,-48 24,-27 31,-67 36,-108l-68 -49c-29,-21 -58,-41 -86,-60l-256 -180c-115,-81 -226,-159 -343,-240 -59,-41 -113,-81 -170,-121l-131 -92c-17,-11 -28,-18 -44,-31l-140 -97c-7,38 -16,75 -38,102 -21,26 -54,43 -90,59 111,75 246,171 282,199l424 297z"/>
   <path class="fil4" d="M1610 516c65,43 383,270 437,270 50,0 147,-77 191,-106l98 -66 -2 -15c-4,-21 -13,-62 -38,-92 -20,-25 -52,-41 -86,-56l-66 44c-32,21 -64,44 -97,62 -57,-30 -528,-349 -618,-409 -44,-29 -55,-48 -117,-48 -43,0 -91,47 -91,90 0,90 76,117 180,187l209 139z"/>
   <path class="fil4" d="M2121 410c-11,10 -16,20 -17,33 0,8 2,22 10,30l190 215c15,16 45,18 61,3 14,-12 13,-17 19,-33l27 -81c11,-37 26,-76 37,-112 1,-4 2,-7 3,-10 1,-4 2,-8 4,-11l10 -30c1,-4 2,-7 3,-11 2,-4 2,-6 2,-10l1 -3c0,-23 -17,-43 -39,-46 -7,-1 -1,-1 -10,-1 -2,1 -3,1 -6,1l-62 13c-26,6 -58,12 -85,18l-105 21c-14,3 -33,5 -43,14z"/>
   <path class="fil5" d="M4805 514l-513 0 0 275 472 0c35,0 61,9 78,24 17,15 26,36 26,62 0,25 -9,45 -26,62 -17,16 -43,24 -78,24l-472 0 0 320 530 0c36,0 63,8 81,25 18,16 28,39 28,66 0,26 -10,48 -28,65 -18,16 -45,25 -81,25l-618 0c-50,0 -85,-12 -107,-34 -22,-22 -33,-57 -33,-106l0 -845c0,-33 5,-59 15,-80 9,-21 24,-36 45,-45 21,-9 48,-14 80,-14l601 0c36,0 63,7 80,24 18,16 27,37 27,63 0,27 -9,49 -27,64 -17,16 -44,25 -80,25zm535 -57l0 322 492 0 0 -322c0,-46 10,-81 30,-104 21,-22 49,-34 82,-34 34,0 62,11 83,34 21,23 32,57 32,104l0 885c0,46 -11,81 -32,104 -22,23 -49,34 -83,34 -34,0 -61,-11 -82,-34 -21,-24 -30,-58 -30,-104l0 -378 -492 0 0 378c0,46 -11,81 -32,104 -21,23 -49,34 -83,34 -34,0 -61,-11 -82,-34 -20,-24 -30,-58 -30,-104l0 -885c0,-46 10,-81 30,-104 20,-22 48,-34 82,-34 34,0 62,11 83,34 21,23 32,57 32,104zm1444 1005l-344 0c-50,0 -85,-12 -106,-34 -21,-22 -32,-57 -32,-106l0 -845c0,-49 11,-85 32,-107 23,-21 58,-32 106,-32l364 0c54,0 101,3 140,10 39,6 74,19 105,38 27,16 50,36 71,60 20,25 36,52 46,81 12,29 17,60 17,92 0,113 -56,195 -169,247 148,48 221,139 221,275 0,63 -16,119 -48,169 -32,51 -75,88 -130,112 -34,15 -74,25 -118,31 -44,5 -97,9 -155,9zm-18 -500l-237 0 0 328 245 0c154,0 231,-55 231,-166 0,-57 -20,-98 -60,-124 -40,-25 -99,-38 -179,-38zm-237 -453l0 290 209 0c57,0 101,-5 131,-16 32,-11 55,-31 72,-61 13,-22 19,-46 19,-72 0,-57 -20,-95 -61,-113 -40,-19 -102,-28 -185,-28l-185 0z"/>
   <path class="fil6" d="M392 1272l-87 71 -52 -64 14 -12 39 46 19 -15 -36 -43 15 -13 35 44 24 -20 -40 -48 15 -12 54 66zm-163 -26l-20 -36c-5,-8 -7,-15 -9,-19 -1,-7 -1,-14 1,-20 2,-7 5,-13 11,-18 4,-6 11,-12 21,-17 7,-4 15,-7 22,-8 8,-2 16,-2 23,0 5,2 11,5 16,10 4,3 7,8 11,16l21 37 -97 55zm5 -29l65 -37 -9 -14c-2,-6 -5,-10 -7,-12 -3,-2 -6,-4 -9,-5 -3,-1 -7,-1 -12,0 -5,1 -12,4 -19,8 -8,4 -13,8 -16,12 -3,3 -5,7 -6,11 -1,4 -1,7 1,11 0,4 3,9 7,17l5 9zm-66 -90l-8 -21 58 -20c9,-3 15,-5 17,-7 4,-2 7,-5 8,-10 2,-4 1,-9 0,-15 -3,-6 -5,-10 -9,-12 -4,-3 -7,-4 -11,-3 -4,1 -10,3 -18,5l-59 21 -7 -22 55 -19c13,-4 22,-7 28,-7 6,-1 11,0 15,1 5,2 9,5 13,10 4,4 8,10 11,19 3,10 4,18 4,24 -1,6 -2,11 -5,16 -2,4 -6,7 -10,10 -5,3 -14,7 -26,11l-56 19zm22 -209l4 -23c12,2 22,6 29,13 7,7 11,17 13,28 2,15 -1,28 -9,39 -9,11 -22,17 -40,20 -18,2 -33,0 -45,-8 -11,-8 -19,-20 -21,-36 -1,-13 1,-25 8,-34 4,-6 10,-11 19,-15l8 22c-5,2 -10,5 -12,10 -3,5 -4,10 -3,16 1,8 5,14 12,18 6,5 16,6 29,4 14,-2 24,-6 29,-12 5,-6 7,-13 6,-21 -1,-5 -3,-11 -8,-14 -4,-4 -11,-6 -19,-7zm43 -148l-1 24 -26 9 -1 45 25 10 -1 24 -110 -47 1 -23 113 -42zm-46 40l-42 14 41 17 1 -31zm55 -65l-91 -22 -8 32 -18 -4 21 -87 18 5 -7 32 90 22 -5 22zm18 -67l-106 -36 7 -21 106 36 -7 21zm-37 -62c-10,-5 -18,-11 -23,-17 -4,-5 -7,-10 -9,-16 -3,-6 -3,-12 -3,-18 0,-7 3,-15 7,-23 7,-15 18,-25 31,-29 14,-4 29,-2 45,6 17,8 27,19 32,32 4,13 3,28 -4,42 -8,15 -18,25 -32,29 -13,4 -28,2 -44,-6zm10 -21c11,6 21,8 30,5 8,-2 14,-7 18,-15 4,-8 5,-17 2,-25 -4,-8 -11,-15 -23,-21 -11,-5 -21,-7 -29,-5 -8,2 -14,8 -19,16 -4,8 -4,17 -1,24 3,8 11,15 22,21zm101 -64l-89 -68 14 -17 87 9 -60 -46 13 -17 89 68 -13 18 -86 -8 58 44 -13 17z"/>
   <path class="fil6" d="M1590 776l69 -88 18 14 -27 35 34 27 28 -35 17 14 -69 88 -18 -14 31 -39 -35 -27 -30 39 -18 -14zm91 66l64 -92 68 47 -11 16 -49 -34 -15 20 46 32 -10 15 -46 -31 -17 24 51 36 -11 16 -70 -49zm168 117l-20 -13 7 -27 -37 -26 -22 16 -20 -14 100 -67 19 14 -27 117zm-9 -60l12 -43 -37 26 25 17zm19 68l61 -92 19 12 -50 77 46 31 -10 16 -66 -44zm89 62l54 -76 -27 -19 11 -15 72 50 -11 16 -27 -19 -53 76 -19 -13zm57 40l64 -91 19 13 -25 36 36 25 25 -36 19 13 -65 92 -18 -13 28 -40 -36 -26 -28 41 -19 -14z"/>
   <path class="fil6" d="M3355 448l24 37c5,8 8,13 10,17 2,5 3,9 3,13 0,4 -2,8 -3,12 -2,4 -5,7 -10,10 -4,3 -9,5 -14,5 -5,0 -10,-2 -14,-5 2,7 2,13 0,19 -2,5 -6,10 -12,13 -4,4 -8,5 -14,6 -6,0 -10,0 -15,-2 -4,-2 -9,-5 -13,-10 -2,-3 -7,-10 -15,-23l-21 -32 94 -60zm-3 29l-22 14 8 12c5,8 8,12 9,14 3,3 6,5 9,5 3,1 6,0 9,-1 3,-3 4,-5 5,-8 1,-2 1,-5 -1,-9 -1,-2 -4,-7 -10,-16l-7 -11zm-38 24l-25 16 12 18c4,7 7,11 9,13 2,2 5,3 8,4 3,0 6,0 10,-3 3,-1 4,-4 6,-6 1,-3 1,-6 0,-9 -1,-3 -4,-9 -10,-18l-10 -15zm110 59l9 21 -56 24c-9,4 -14,6 -17,8 -4,3 -7,6 -7,11 -2,4 -1,9 1,15 3,6 6,10 10,11 4,2 8,3 11,2 4,-1 10,-3 18,-7l57 -24 9 20 -54 24c-12,5 -21,9 -27,10 -6,1 -11,0 -16,-1 -5,-2 -9,-4 -13,-9 -5,-4 -8,-10 -12,-18 -4,-10 -6,-17 -6,-23 0,-6 1,-12 4,-16 2,-5 5,-8 8,-11 6,-4 14,-8 26,-13l55 -24zm-25 136l7 21c-7,3 -12,6 -14,11 -3,4 -4,10 -2,17 1,7 3,12 7,15 4,3 8,4 12,3 3,0 5,-1 6,-3 1,-2 3,-5 3,-9 1,-3 1,-9 2,-19 0,-12 2,-21 6,-27 4,-7 11,-12 20,-14 5,-1 11,0 17,2 5,2 10,6 13,11 4,6 6,13 8,21 3,14 2,25 -3,33 -5,8 -12,13 -22,16l-5 -23c5,-2 9,-4 11,-8 2,-4 2,-8 1,-15 -1,-6 -3,-11 -7,-14 -2,-2 -5,-3 -8,-2 -2,1 -4,2 -6,5 -1,3 -3,10 -3,21 -1,12 -2,20 -3,26 -2,5 -5,10 -9,14 -4,4 -10,6 -17,8 -6,1 -12,1 -19,-2 -6,-3 -11,-7 -15,-12 -4,-6 -6,-14 -8,-24 -3,-13 -2,-25 3,-33 5,-9 14,-15 25,-19zm-18 114l112 -9 1 23 -111 9 -2 -23zm3 44l111 9 -1 22 -79 40 75 6 -2 21 -111 -9 2 -22 76 -40 -73 -6 2 -21zm-9 113l110 20 -14 81 -19 -3 11 -59 -24 -4 -10 55 -19 -4 10 -55 -30 -5 -11 61 -18 -3 14 -84zm14 112l-7 21c-7,-2 -13,-2 -18,0 -5,3 -8,7 -11,13 -3,7 -4,12 -3,17 2,4 4,8 8,9 2,1 5,2 7,1 2,-1 5,-2 8,-5 2,-2 5,-7 11,-15 8,-10 15,-16 21,-18 9,-4 17,-4 25,0 5,2 9,6 12,11 3,5 5,11 5,17 0,6 -2,14 -5,22 -6,12 -13,21 -22,24 -8,4 -18,4 -27,0l9 -21c5,2 10,2 13,0 4,-2 7,-6 9,-11 3,-6 4,-11 3,-16 0,-3 -2,-5 -5,-6 -2,-1 -4,-1 -7,0 -3,2 -9,7 -16,16 -6,9 -12,15 -17,19 -5,3 -10,5 -15,6 -6,1 -12,0 -19,-3 -5,-2 -10,-7 -14,-12 -3,-6 -5,-12 -5,-19 0,-7 3,-15 7,-24 5,-13 13,-21 22,-26 9,-4 20,-4 31,0zm-46 101l-11 19c-8,-3 -13,-4 -19,-3 -5,2 -9,5 -13,10 -5,6 -7,11 -6,16 0,5 2,9 5,11 2,2 5,2 7,2 2,0 5,-1 9,-4 2,-1 7,-5 14,-11 10,-8 18,-13 24,-14 9,-2 17,0 25,5 4,3 7,8 10,13 2,6 2,12 1,18 -2,6 -5,13 -10,20 -8,11 -17,18 -26,20 -9,2 -18,0 -27,-5l13 -19c5,3 10,3 14,2 3,-1 7,-4 11,-9 4,-5 5,-10 5,-15 0,-3 0,-5 -3,-7 -2,-1 -4,-2 -7,-1 -4,0 -10,5 -18,12 -9,7 -16,13 -22,15 -5,3 -10,4 -16,3 -5,0 -11,-2 -17,-6 -5,-4 -9,-9 -11,-15 -3,-6 -3,-13 -2,-20 2,-7 6,-14 12,-22 8,-11 17,-18 27,-21 9,-2 20,0 31,6z"/>
  </g>
 </g>
</svg>
