<?xml version="1.0" encoding="UTF-8"?>
<!DOCTYPE svg PUBLIC "-//W3C//DTD SVG 1.1//EN" "http://www.w3.org/Graphics/SVG/1.1/DTD/svg11.dtd">
<!-- Creator: CorelDRAW X7 -->
<svg xmlns="http://www.w3.org/2000/svg" xml:space="preserve" width="4in" height="4in" version="1.1" style="shape-rendering:geometricPrecision; text-rendering:geometricPrecision; image-rendering:optimizeQuality; fill-rule:evenodd; clip-rule:evenodd"
viewBox="0 0 4000 4000"
 xmlns:xlink="http://www.w3.org/1999/xlink">
 <defs>
  <style type="text/css">
   <![CDATA[
    .fil1 {fill:#12B85A}
    .fil2 {fill:#3A3B4A}
    .fil0 {fill:#ED3237}
    .fil3 {fill:#F58634}
   ]]>
  </style>
 </defs>
 <g id="Layer_x0020_1">
  <metadata id="CorelCorpID_0Corel-Layer"/>
  <g id="_417555728">
   <path class="fil0" d="M861 2118l1124 -1134 -630 -366c-97,-58 -228,-146 -337,-146 -118,0 -206,32 -281,107 -48,48 -106,143 -106,237l-3 1197 233 105z"/>
   <path class="fil1" d="M2300 2835l-1672 -744 -2 1083c0,182 174,351 354,354 150,0 174,-37 295,-105l611 -351c133,-80 274,-157 414,-237z"/>
   <path class="fil2" d="M931 2149l1447 642c118,-68 237,-136 346,-201 29,-17 51,-29 78,-44 29,-17 51,-29 80,-46l150 -87 -562 -1148c-119,-71 -238,-143 -347,-204l-72 -41 -1120 1129z"/>
   <path class="fil3" d="M2581 1330l511 1049 15 -10c29,-14 53,-29 80,-46 29,-17 44,-26 68,-50l17 -15c128,-136 138,-354 17,-494 -39,-44 -5,-12 -61,-58 -12,-10 -22,-15 -36,-25l-456 -264c-51,-26 -101,-55 -155,-87z"/>
  </g>
 </g>
</svg>
