<?xml version="1.0" encoding="UTF-8"?>
<!DOCTYPE svg PUBLIC "-//W3C//DTD SVG 1.1//EN" "http://www.w3.org/Graphics/SVG/1.1/DTD/svg11.dtd">
<!-- Creator: CorelDRAW X7 -->
<svg xmlns="http://www.w3.org/2000/svg" xml:space="preserve" width="2.529in" height="0.533in" version="1.1" style="shape-rendering:geometricPrecision; text-rendering:geometricPrecision; image-rendering:optimizeQuality; fill-rule:evenodd; clip-rule:evenodd"
viewBox="0 0 2529 533"
 xmlns:xlink="http://www.w3.org/1999/xlink">
 <defs>
  <style type="text/css">
   <![CDATA[
    .fil4 {fill:black}
    .fil3 {fill:#16ACE3}
    .fil1 {fill:#25AE60}
    .fil0 {fill:#D92A03}
    .fil2 {fill:#F58634}
    .fil5 {fill:black;fill-rule:nonzero}
    .fil6 {fill:#FEFEFE;fill-rule:nonzero}
   ]]>
  </style>
 </defs>
 <g id="Layer_x0020_1">
  <metadata id="CorelCorpID_0Corel-Layer"/>
  <g id="_464013280">
   <path class="fil0" d="M443 393c-8,-10 -11,-24 -13,-37l-18 12c-51,35 -97,77 -162,77 -54,0 -94,-23 -123,-48 -8,-6 -14,-15 -20,-23 -6,-8 -12,-17 -17,-27 -70,-143 81,-310 237,-231 7,3 28,17 53,34 13,-5 24,-11 32,-21 7,-9 11,-22 13,-36l-42 -29c-164,-109 -383,12 -383,205 0,172 165,282 313,239 49,-13 108,-56 160,-93 -8,-4 -22,-11 -30,-22z"/>
   <path class="fil1" d="M894 118c118,-72 288,32 257,188 -3,14 -6,22 -11,34 -34,84 -146,136 -241,85 -11,-6 -21,-14 -31,-20l-6 -5c-2,15 -4,29 -13,39 -9,10 -25,14 -34,16 0,0 0,0 0,0 26,18 47,32 57,36 53,27 111,34 169,18 103,-27 186,-123 186,-223 0,-48 -1,-77 -23,-121 -25,-50 -61,-89 -112,-115 -20,-10 -58,-24 -86,-26 -75,-3 -113,8 -173,48l-67 45 -11 7c12,5 24,11 31,20 9,10 12,25 13,32 1,2 1,4 1,5l94 -63z"/>
   <path class="fil2" d="M743 439l-176 -122c-52,-34 -39,-27 -107,17l-30 22c2,13 5,27 13,37 8,11 22,18 30,22 19,-14 37,-27 53,-39 21,19 167,116 201,140 20,14 19,17 41,17 20,0 58,-37 9,-70 -6,-4 -10,-7 -17,-12 -6,-5 -11,-7 -17,-12z"/>
   <path class="fil3" d="M629 325c29,20 122,87 186,130 0,0 0,0 0,0 9,-2 25,-6 34,-16 9,-10 11,-24 13,-39l-24 -17c-10,-7 -20,-14 -30,-21l-91 -64c-40,-28 -79,-56 -121,-84 -21,-15 -40,-29 -60,-43l-46 -32c-6,-4 -10,-7 -16,-11l-49 -35c-2,14 -6,27 -13,36 -8,10 -19,16 -32,21 39,27 87,61 99,70l150 105z"/>
   <path class="fil4" d="M544 147c23,15 135,95 154,95 18,0 52,-27 67,-37l35 -24 -1 -5c-1,-7 -4,-22 -13,-32 -7,-9 -19,-15 -31,-20l-23 15c-11,8 -22,16 -34,22 -20,-10 -186,-123 -218,-144 -16,-10 -20,-17 -42,-17 -15,0 -32,16 -32,32 0,31 27,41 64,66l74 49z"/>
   <path class="fil4" d="M724 109c-4,4 -6,7 -6,12 0,3 1,8 4,11l67 75c5,6 15,7 21,1 5,-4 5,-6 7,-11l9 -29c4,-13 10,-27 13,-39 1,-2 1,-3 1,-4 1,-1 1,-3 2,-4l3 -10c1,-2 1,-3 1,-4 1,-2 1,-2 1,-4l1 -1c0,-8 -6,-15 -14,-16 -3,0 -1,0 -4,0 0,0 -1,0 -2,0l-22 5c-9,2 -20,4 -30,6l-37 7c-5,1 -11,2 -15,5z"/>
   <path class="fil5" d="M1671 146l-181 0 0 97 167 0c12,0 21,3 27,9 6,5 9,12 9,21 0,9 -3,16 -9,22 -6,6 -15,9 -27,9l-167 0 0 113 187 0c13,0 22,2 29,8 6,6 10,14 10,24 0,9 -4,17 -10,23 -7,5 -16,9 -29,9l-218 0c-18,0 -30,-5 -38,-12 -7,-8 -11,-21 -11,-38l0 -298c0,-12 1,-21 5,-28 3,-8 8,-13 16,-16 7,-3 17,-5 28,-5l212 0c13,0 22,2 28,8 7,6 10,13 10,23 0,9 -3,17 -10,22 -6,6 -15,9 -28,9zm189 -20l0 114 174 0 0 -114c0,-16 3,-29 10,-37 8,-8 18,-12 29,-12 12,0 22,4 30,12 7,8 11,20 11,37l0 312c0,16 -4,29 -11,37 -8,8 -18,12 -30,12 -12,0 -21,-4 -29,-12 -7,-9 -10,-21 -10,-37l0 -133 -174 0 0 133c0,16 -4,29 -11,37 -8,8 -18,12 -30,12 -12,0 -21,-4 -28,-12 -8,-9 -11,-21 -11,-37l0 -312c0,-16 3,-29 11,-37 7,-8 16,-12 28,-12 12,0 22,4 30,12 7,8 11,20 11,37zm510 355l-122 0c-17,0 -30,-5 -37,-12 -8,-8 -11,-21 -11,-38l0 -298c0,-17 3,-30 11,-38 8,-7 20,-11 37,-11l129 0c19,0 35,1 49,3 14,3 26,7 37,14 10,5 18,13 25,21 7,9 13,18 17,29 4,10 6,21 6,32 0,40 -20,69 -60,87 52,17 78,49 78,97 0,22 -6,42 -17,60 -11,18 -27,31 -46,39 -12,6 -26,9 -42,11 -15,2 -34,4 -54,4zm-7 -177l-83 0 0 116 86 0c55,0 82,-20 82,-59 0,-20 -7,-34 -21,-43 -15,-9 -35,-14 -64,-14zm-83 -160l0 103 73 0c21,0 36,-2 47,-6 11,-4 19,-11 25,-22 5,-7 7,-16 7,-25 0,-20 -7,-34 -22,-40 -14,-7 -36,-10 -65,-10l-65 0z"/>
   <path class="fil6" d="M114 413l-31 26 -18 -23 5 -4 13 16 7 -5 -13 -16 6 -4 12 15 9 -7 -15 -17 6 -4 19 23zm-58 -9l-7 -12c-2,-3 -2,-6 -3,-7 0,-3 0,-5 0,-7 1,-3 2,-5 4,-7 2,-2 4,-4 8,-6 2,-1 5,-2 7,-2 3,-1 6,-1 9,0 1,0 3,1 5,3 2,1 3,3 4,6l7 13 -34 19zm2 -10l23 -13 -3 -5c-1,-2 -2,-3 -3,-4 -1,-1 -2,-2 -3,-2 -1,0 -2,0 -4,0 -2,0 -4,1 -7,3 -3,1 -4,3 -5,4 -2,1 -2,3 -3,4 0,1 0,2 1,4 0,1 1,3 2,6l2 3zm-23 -32l-3 -7 20 -7c4,-1 6,-2 6,-3 2,0 3,-1 3,-3 1,-2 1,-3 0,-5 -1,-3 -2,-4 -3,-5 -1,-1 -2,-1 -4,-1 -1,1 -3,1 -6,2l-21 7 -3 -7 20 -7c4,-1 8,-3 10,-3 2,0 4,0 5,1 2,1 3,2 5,3 1,2 2,4 4,7 1,4 1,6 1,9 0,2 -1,3 -2,5 -1,2 -2,3 -3,4 -2,1 -5,2 -10,4l-19 6zm7 -73l2 -9c4,1 8,3 10,5 3,3 4,6 5,10 0,5 -1,10 -3,14 -4,4 -8,6 -15,7 -6,0 -11,0 -15,-3 -4,-3 -7,-7 -8,-13 0,-4 0,-9 3,-12 1,-2 3,-4 7,-5l2 8c-1,0 -3,1 -4,3 -1,2 -1,4 -1,6 1,3 2,5 4,6 3,2 6,2 11,2 5,-1 8,-2 10,-5 2,-2 2,-4 2,-7 0,-2 -1,-4 -3,-5 -1,-1 -4,-2 -7,-2zm16 -53l-1 9 -9 3 0 16 9 3 -1 9 -39 -17 1 -8 40 -15zm-17 14l-14 5 14 6 0 -11zm20 -22l-32 -8 -3 11 -6 -1 7 -31 6 2 -2 11 32 8 -2 8zm6 -24l-37 -13 2 -7 38 12 -3 8zm-13 -22c-3,-2 -6,-4 -8,-6 -1,-2 -2,-4 -3,-6 -1,-2 -1,-4 -1,-6 0,-2 1,-5 2,-8 3,-5 7,-9 11,-10 5,-2 10,-1 16,2 6,3 10,6 11,11 2,5 1,10 -1,15 -3,5 -6,9 -11,10 -5,2 -10,1 -16,-2zm4 -7c4,2 7,2 10,1 3,0 5,-2 7,-5 1,-3 1,-6 0,-9 -1,-3 -4,-5 -8,-7 -4,-2 -7,-3 -10,-2 -3,1 -5,3 -7,6 -1,3 -1,6 0,8 1,3 4,5 8,8zm35 -23l-31 -24 5 -6 31 3 -22 -16 5 -6 31 24 -4 6 -31 -3 21 16 -5 6z"/>
   <path class="fil6" d="M537 238l24 -31 6 5 -9 13 12 9 10 -12 6 5 -25 31 -6 -5 11 -14 -12 -9 -11 13 -6 -5zm32 24l22 -33 24 17 -4 6 -17 -12 -5 7 16 11 -3 5 -17 -11 -6 9 18 12 -4 6 -24 -17zm59 41l-7 -5 2 -9 -13 -9 -7 5 -7 -5 35 -23 7 5 -10 41zm-3 -21l4 -15 -13 9 9 6zm7 24l21 -33 7 5 -18 27 16 11 -3 5 -23 -15zm31 22l19 -27 -10 -7 4 -5 26 18 -4 5 -10 -6 -18 26 -7 -4zm20 14l23 -32 6 4 -8 13 12 9 9 -13 7 5 -23 32 -7 -4 10 -15 -12 -9 -10 15 -7 -5z"/>
   <path class="fil6" d="M1160 123l8 13c2,3 3,4 4,6 0,2 1,3 1,4 0,2 -1,3 -1,5 -1,1 -2,2 -4,3 -1,1 -3,2 -5,2 -2,0 -3,-1 -5,-2 1,3 1,5 0,7 -1,2 -2,3 -4,4 -2,2 -3,2 -5,3 -2,0 -4,0 -5,-1 -2,-1 -4,-2 -5,-4 -1,-1 -2,-3 -5,-8l-8 -11 34 -21zm-2 10l-7 5 3 4c1,3 2,4 3,5 1,1 2,2 3,2 1,0 2,0 3,-1 1,-1 1,-1 2,-2 0,-1 0,-2 -1,-4 0,0 -1,-2 -3,-5l-3 -4zm-13 8l-9 6 4 6c2,3 3,4 4,5 0,1 1,1 2,1 2,0 3,0 4,-1 1,0 1,-1 2,-2 0,-1 0,-2 0,-3 0,-1 -1,-3 -3,-6l-4 -6zm39 21l3 8 -20 8c-3,2 -5,2 -6,3 -1,1 -2,2 -2,4 -1,1 -1,3 0,5 1,2 2,4 4,4 1,1 3,1 4,1 1,-1 3,-1 6,-3l20 -8 3 7 -19 8c-4,2 -7,3 -9,4 -2,0 -4,0 -6,-1 -2,0 -3,-1 -5,-3 -1,-1 -2,-3 -4,-6 -1,-4 -2,-6 -2,-8 0,-2 0,-4 1,-6 1,-2 2,-3 3,-4 2,-1 5,-3 9,-4l20 -9zm-9 48l3 8c-3,1 -5,2 -5,4 -1,1 -2,3 -1,6 0,2 1,4 2,5 2,1 3,1 5,1 1,0 1,0 2,-1 0,-1 1,-2 1,-3 0,-1 0,-4 0,-7 0,-4 1,-7 3,-10 1,-2 3,-4 7,-5 1,0 4,0 6,1 1,1 3,2 4,4 2,2 2,5 3,7 1,5 1,9 -1,12 -2,3 -4,5 -8,6l-2 -8c2,-1 4,-2 4,-3 1,-2 1,-3 1,-5 -1,-3 -1,-4 -3,-5 0,-1 -2,-1 -3,-1 0,0 -1,1 -2,2 0,1 -1,3 -1,7 0,4 0,7 -1,9 -1,2 -2,4 -3,5 -1,2 -4,2 -6,3 -2,0 -4,0 -7,-1 -2,-1 -4,-2 -5,-4 -1,-2 -2,-5 -3,-8 -1,-5 -1,-9 1,-12 2,-3 5,-5 9,-7zm-6 40l39 -3 1 8 -40 4 0 -9zm1 16l39 3 0 8 -28 14 26 2 -1 8 -39 -4 1 -7 27 -14 -26 -3 1 -7zm-3 40l38 7 -5 28 -6 -1 4 -20 -9 -2 -3 20 -7 -2 3 -19 -10 -2 -4 22 -6 -2 5 -29zm5 39l-3 8c-2,-1 -5,-1 -6,0 -2,1 -3,2 -4,4 -1,3 -2,5 -1,6 0,2 1,3 3,4 0,0 1,0 2,0 1,0 2,-1 3,-2 1,-1 2,-2 4,-5 3,-4 5,-6 7,-7 3,-1 6,-1 9,0 2,1 3,3 4,4 1,2 2,4 2,6 0,2 -1,5 -2,8 -2,4 -4,8 -8,9 -2,1 -6,1 -9,0l3 -8c2,1 4,1 5,0 1,-1 2,-2 3,-4 1,-2 1,-4 1,-5 0,-1 -1,-2 -2,-2 -1,-1 -1,-1 -2,0 -1,0 -3,2 -6,5 -2,3 -4,5 -6,7 -2,1 -3,2 -5,2 -2,0 -4,0 -7,-1 -2,-1 -3,-3 -5,-4 -1,-2 -2,-5 -2,-7 0,-2 1,-5 3,-8 2,-5 4,-8 8,-10 3,-1 7,-1 11,0zm-17 36l-4 7c-2,-1 -4,-2 -6,-1 -2,0 -3,1 -5,3 -2,2 -2,4 -2,6 0,2 1,3 2,4 0,0 2,0 2,0 1,0 2,0 3,-1 1,0 3,-2 5,-4 4,-3 7,-4 9,-5 3,-1 6,0 9,2 1,1 2,3 3,5 1,2 1,4 1,6 -1,2 -2,4 -4,7 -3,4 -6,6 -9,7 -3,1 -7,0 -10,-2l5 -6c2,1 3,1 5,0 1,0 2,-1 4,-3 1,-2 1,-3 1,-5 0,-1 0,-2 -1,-3 0,0 -1,0 -2,0 -1,0 -4,2 -6,4 -4,3 -6,5 -8,5 -2,2 -4,2 -6,2 -2,0 -4,-1 -6,-3 -2,-1 -3,-3 -4,-5 -1,-2 -1,-4 0,-7 0,-2 2,-5 4,-8 3,-4 6,-6 9,-7 4,-1 7,0 11,2z"/>
  </g>
 </g>
</svg>
