<?xml version="1.0" encoding="UTF-8"?>
<!DOCTYPE svg PUBLIC "-//W3C//DTD SVG 1.1//EN" "http://www.w3.org/Graphics/SVG/1.1/DTD/svg11.dtd">
<!-- Creator: CorelDRAW X7 -->
<svg xmlns="http://www.w3.org/2000/svg" xml:space="preserve" width="1.862in" height="1.834in" version="1.1" style="shape-rendering:geometricPrecision; text-rendering:geometricPrecision; image-rendering:optimizeQuality; fill-rule:evenodd; clip-rule:evenodd"
viewBox="0 0 1862 1834"
 xmlns:xlink="http://www.w3.org/1999/xlink">
 <defs>
  <style type="text/css">
   <![CDATA[
    .fil0 {fill:#4D4C4E;fill-rule:nonzero}
    .fil7 {fill:#4EBFA9;fill-rule:nonzero}
    .fil1 {fill:#69C6B9;fill-rule:nonzero}
    .fil6 {fill:#A9DACC;fill-rule:nonzero}
    .fil5 {fill:#F47D35;fill-rule:nonzero}
    .fil4 {fill:#F7AD4A;fill-rule:nonzero}
    .fil2 {fill:#FAF8EE;fill-rule:nonzero}
    .fil3 {fill:#FBB24D;fill-rule:nonzero}
   ]]>
  </style>
 </defs>
 <g id="Layer_x0020_1">
  <metadata id="CorelCorpID_0Corel-Layer"/>
  <g id="_566942448">
   <path class="fil0" d="M796 36c71,0 124,28 170,71 66,66 108,167 132,251 12,43 20,81 24,109 2,13 5,24 5,31 1,4 1,8 1,9 0,3 1,3 1,3 0,10 9,17 19,16 9,-1 17,-10 16,-19 0,-1 -13,-125 -64,-251 -25,-62 -61,-125 -110,-173 -49,-50 -114,-83 -194,-83 -9,0 -18,8 -18,18 0,10 9,18 18,18z"/>
   <path class="fil1" d="M317 354l0 408c33,-7 67,-10 104,-10 296,0 537,240 537,538 0,157 -95,311 -206,436l763 0c91,0 166,-75 166,-167l0 -1205 -1364 0z"/>
   <path class="fil0" d="M1383 354l0 1205c0,92 75,167 166,167l146 0c92,0 167,-75 167,-167l0 -1205 -479 0z"/>
   <path class="fil2" d="M486 511c0,24 -19,43 -44,43 -24,0 -43,-19 -43,-43 0,-24 19,-43 43,-43 25,0 44,19 44,43z"/>
   <path class="fil2" d="M1030 511c0,24 -19,43 -43,43 -24,0 -43,-19 -43,-43 0,-24 19,-43 43,-43 24,0 43,19 43,43z"/>
   <path class="fil2" d="M1736 511c0,24 -19,43 -43,43 -23,0 -43,-19 -43,-43 0,-24 20,-43 43,-43 24,0 43,19 43,43z"/>
   <path class="fil0" d="M1005 511l0 -1c1,-14 17,-136 67,-251 24,-59 59,-114 103,-156 43,-41 96,-67 165,-67 69,0 124,28 168,71 66,66 108,167 132,251 13,43 20,81 25,109 3,13 4,24 5,31 0,4 0,8 2,9 0,3 0,3 0,3 1,10 10,17 19,16 10,-1 16,-10 16,-19 -1,-1 -12,-125 -64,-251 -26,-62 -61,-125 -111,-173 -48,-50 -112,-83 -192,-83 -80,0 -145,33 -194,81 -75,74 -118,180 -143,268 -26,87 -33,157 -33,158 -2,9 6,18 15,19 10,1 19,-6 20,-15z"/>
   <path class="fil0" d="M461 511l0 -1c3,-14 18,-136 68,-251 25,-59 59,-114 102,-156 45,-41 98,-67 165,-67 10,0 18,-8 18,-18 0,-10 -8,-18 -18,-18 -80,0 -144,33 -194,83 -73,72 -116,178 -142,266 -25,87 -33,157 -33,158 -1,9 5,18 15,19 11,1 19,-6 19,-15z"/>
   <path class="fil3" d="M413 1504c-148,0 -268,-120 -268,-268 0,-149 120,-269 268,-269 149,0 269,120 269,269 0,148 -120,268 -269,268zm0 -638c-228,0 -413,185 -413,413 0,290 413,555 413,555 0,0 413,-269 413,-555 0,-228 -185,-413 -413,-413z"/>
   <path class="fil4" d="M413 1834l0 0 0 0c0,0 413,-269 413,-555l0 0c0,286 -413,555 -413,555zm0 0l0 0 0 0zm413 -555c0,-1 0,-1 0,-1 0,0 0,0 0,1z"/>
   <path class="fil5" d="M413 1834l0 0c0,0 0,0 0,0l0 0c-1,-1 -102,-66 -204,-166 36,9 70,13 105,13 277,0 523,-262 505,-478 5,24 7,49 7,75 0,0 0,0 0,1l0 0c0,286 -413,555 -413,555z"/>
   <path class="fil6" d="M958 1290c0,-1 0,-1 0,-1 0,0 0,0 0,1l0 0zm0 -1c0,0 0,-1 0,-1 0,0 0,1 0,1zm0 -1c0,0 0,0 0,0 0,0 0,0 0,0zm0 -2c0,0 0,0 0,0 0,0 0,0 0,0zm0 0c0,-1 0,-1 0,-1 0,0 0,0 0,1zm0 -1c0,0 0,0 0,-1 0,1 0,1 0,1zm0 -1c0,0 0,0 0,0 0,0 0,0 0,0zm0 -1c0,0 0,0 0,0 0,0 0,0 0,0zm0 0c0,0 0,-2 0,-2 0,0 0,2 0,2zm0 -2c0,0 0,0 0,0 0,0 0,0 0,0zm0 -1c0,0 0,0 0,0 0,0 0,0 0,0zm0 0c0,-1 0,-1 0,-1 0,0 0,0 0,1zm0 -1c0,0 0,0 0,-1 0,1 0,1 0,1zm0 -1c0,0 0,0 0,0 0,0 0,0 0,0zm0 0c-4,-153 -69,-288 -173,-384 0,1 1,1 1,1 103,95 168,230 172,383z"/>
   <path class="fil7" d="M1172 1726l-420 0c111,-125 206,-279 206,-436l0 0c0,-1 0,-1 0,-1 0,0 0,0 0,0 0,0 0,-1 0,-1 0,0 0,0 0,0 0,0 0,0 0,0 0,-2 0,-2 0,-2 0,0 0,0 0,0 0,0 0,0 0,0 0,-1 0,-1 0,-1 0,0 0,0 0,0 0,0 0,0 0,-1 0,0 0,0 0,0 0,0 0,0 0,0 0,0 0,0 0,-1 0,0 0,0 0,0 0,0 0,0 0,0 0,0 0,-2 0,-2 0,0 0,0 0,0 0,0 0,0 0,0 0,0 0,-1 0,-1 0,0 0,0 0,0 0,0 0,0 0,0 0,-1 0,-1 0,-1 0,0 0,0 0,0 0,0 0,0 0,-1 0,0 0,0 0,0 0,0 0,0 0,0 0,0 0,0 0,0 -4,-153 -69,-288 -172,-383 217,182 332,499 386,831z"/>
   <path class="fil3" d="M413 1432c-109,0 -196,-87 -196,-196 0,-108 87,-197 196,-197 108,0 197,89 197,197 0,109 -89,196 -197,196z"/>
  </g>
 </g>
</svg>
