<?xml version="1.0" encoding="UTF-8"?>
<!DOCTYPE svg PUBLIC "-//W3C//DTD SVG 1.1//EN" "http://www.w3.org/Graphics/SVG/1.1/DTD/svg11.dtd">
<!-- Creator: CorelDRAW X7 -->
<svg xmlns="http://www.w3.org/2000/svg" xml:space="preserve" width="4in" height="4in" version="1.1" style="shape-rendering:geometricPrecision; text-rendering:geometricPrecision; image-rendering:optimizeQuality; fill-rule:evenodd; clip-rule:evenodd"
viewBox="0 0 4000 4000"
 xmlns:xlink="http://www.w3.org/1999/xlink">
 <defs>
  <style type="text/css">
   <![CDATA[
    .fil0 {fill:#C0392B}
   ]]>
  </style>
 </defs>
 <g id="Layer_x0020_1">
  <metadata id="CorelCorpID_0Corel-Layer"/>
  <path class="fil0" d="M1485 1070c49,-12 104,-59 153,-77 26,-10 134,32 171,43 319,91 656,205 968,292 34,9 63,23 98,24l0 15c-39,4 -162,69 -183,69 -44,0 -550,-161 -609,-178l-563 -169c-37,-12 -16,7 -35,-19zm1741 130c-12,16 -21,16 -43,25 -202,77 -97,72 -296,16 -56,-16 -98,-30 -153,-46 -103,-29 -198,-57 -299,-90l-528 -159c-24,-7 -50,-19 -78,-21 8,-7 -3,0 13,-10l60 -32c121,-72 80,-50 247,-4 142,39 1020,316 1077,321zm-2871 473c0,157 49,291 115,389 -31,7 -76,29 -97,48l-70 83c-122,187 -52,489 75,648 26,34 63,50 112,64 240,69 557,160 800,239 56,18 774,203 806,203 34,0 559,-216 676,-265 35,-14 67,-29 100,-45 32,-15 65,-30 94,-43 189,-84 514,-218 680,-306 -3,-38 -8,-64 -8,-114 -40,-22 -170,-67 -210,-51l-483 220c-29,12 -72,30 -101,45l-242 109c-100,47 -510,242 -537,242 -48,0 -1349,-361 -1436,-389 -82,-26 -122,-40 -156,-126 -62,-155 -52,-269 27,-378 77,1 1324,400 1514,449 52,13 56,1 100,-19l877 -390c66,-28 127,-58 189,-86 66,-30 129,-55 196,-87 68,-31 126,-56 196,-87l188 -94c-3,-36 -7,-58 -7,-106 -222,-46 -108,-72 -364,36l-1109 491c-109,46 -70,52 -198,21 -139,-35 -278,-80 -414,-120l-940 -259c-46,-15 -62,-12 -93,-45 -75,-80 -103,-215 -76,-324 43,-171 53,-131 254,-75 65,18 123,36 190,55 318,89 642,177 955,282 185,62 168,72 293,9 35,-18 63,-30 100,-45 67,-28 134,-57 195,-88l1123 -495c24,-13 26,-18 46,-31 -4,-39 -8,-65 -8,-115 -48,-4 -363,-102 -409,-117 -270,-88 -545,-151 -815,-239l-302 -88c-159,-51 -125,-29 -345,70 -40,18 -74,33 -116,51l-1186 532c-109,49 -179,212 -179,341z"/>
 </g>
</svg>
