<?xml version="1.0" encoding="UTF-8"?>
<!DOCTYPE svg PUBLIC "-//W3C//DTD SVG 1.1//EN" "http://www.w3.org/Graphics/SVG/1.1/DTD/svg11.dtd">
<!-- Creator: CorelDRAW X7 -->
<svg xmlns="http://www.w3.org/2000/svg" xml:space="preserve" width="4in" height="4in" version="1.1" style="shape-rendering:geometricPrecision; text-rendering:geometricPrecision; image-rendering:optimizeQuality; fill-rule:evenodd; clip-rule:evenodd"
viewBox="0 0 4000 4000"
 xmlns:xlink="http://www.w3.org/1999/xlink">
 <defs>
  <style type="text/css">
   <![CDATA[
    .fil0 {fill:#075EE0}
    .fil1 {fill:#373435}
   ]]>
  </style>
 </defs>
 <g id="Layer_x0020_1">
  <metadata id="CorelCorpID_0Corel-Layer"/>
  <g id="_421997168">
   <path class="fil0" d="M2209 538c76,75 73,107 73,203l9 1079c3,61 0,123 -61,180 -62,59 -112,57 -176,57l-1081 12c-100,0 -196,-23 -240,-142l-6 -46c-5,-80 29,-155 107,-196 71,-37 260,-28 347,-28 53,0 667,-2 699,-9 7,-34 -4,-772 -7,-859 0,-64 -4,-112 19,-176 48,-130 228,-164 317,-75zm-1594 1060l43 -46c50,-43 112,-75 183,-89 68,-16 244,-14 317,-14 44,-2 480,-2 512,-6 5,-32 -4,-574 -4,-645 0,-22 0,-38 0,-64 0,-25 2,-38 2,-63 7,-115 43,-190 128,-277 224,-228 637,-96 690,229 11,82 11,927 13,1075 3,149 23,302 -105,430 -80,82 -139,116 -240,132 -77,12 -934,14 -1078,14 -155,2 -301,18 -429,-107 -174,-172 -163,-416 -32,-569z"/>
   <path class="fil1" d="M3221 2000c-71,-71 -103,-69 -205,-69 -147,3 -1108,3 -1165,19 -30,9 -67,32 -90,57 -57,64 -57,116 -54,178l9 1081c0,61 0,125 59,182 78,76 185,80 256,30 32,-23 55,-46 71,-80 36,-78 20,-258 20,-349 0,-51 -9,-665 -4,-697 32,-7 639,-9 690,-9 84,0 272,9 345,-21 128,-55 162,-231 68,-322zm162 404c-105,105 -155,124 -287,142 -101,14 -720,2 -768,11 -9,48 14,679 5,763 -5,23 -3,37 -10,64 -25,142 -128,265 -265,311 -34,11 -105,27 -139,25l-68 -7c-172,-29 -309,-162 -336,-331 -16,-84 -14,-927 -16,-1076 -3,-201 -25,-304 135,-466 121,-123 287,-107 427,-107 146,-3 991,-16 1073,-5 240,34 409,283 329,535 -13,43 -39,98 -80,141z"/>
   <polygon class="fil0" points="1442,2064 1793,2059 1821,2270 1369,2274 "/>
   <circle class="fil0" transform="matrix(1.08308 0.0499144 -0.0499144 1.08308 1918 3305.07)" r="138"/>
  </g>
 </g>
</svg>
