<?xml version="1.0" encoding="UTF-8"?>
<!DOCTYPE svg PUBLIC "-//W3C//DTD SVG 1.1//EN" "http://www.w3.org/Graphics/SVG/1.1/DTD/svg11.dtd">
<!-- Creator: CorelDRAW X7 -->
<svg xmlns="http://www.w3.org/2000/svg" xml:space="preserve" width="3.2in" height="1.3in" version="1.1" style="shape-rendering:geometricPrecision; text-rendering:geometricPrecision; image-rendering:optimizeQuality; fill-rule:evenodd; clip-rule:evenodd"
viewBox="0 0 3200 1300"
 xmlns:xlink="http://www.w3.org/1999/xlink">
 <defs>
  <style type="text/css">
   <![CDATA[
    .fil0 {fill:#007E84}
    .fil2 {fill:#373435}
    .fil1 {fill:#F58634}
    .fil3 {fill:black;fill-rule:nonzero}
   ]]>
  </style>
 </defs>
 <g id="Layer_x0020_1">
  <metadata id="CorelCorpID_0Corel-Layer"/>
  <g id="_436905888">
   <path class="fil0" d="M398 356l-214 1c-6,14 -21,179 -19,196 19,10 45,17 65,27 63,32 115,75 168,118 53,41 156,130 255,130 96,0 200,-87 251,-129 55,-45 107,-85 169,-118 22,-11 47,-17 68,-28l-18 -194 -254 -2c-11,-60 16,-112 -55,-201 -86,-106 -266,-112 -360,-3 -52,60 -56,106 -56,203zm235 193c-134,31 -86,249 42,217 48,-13 87,-67 75,-130 -9,-51 -56,-101 -117,-87zm-168 -246l1 54 332 0c43,-275 -333,-279 -333,-54z"/>
   <path class="fil1" d="M765 1225c126,0 320,3 442,-1l-59 -600c-35,5 -122,76 -143,95 -39,33 -77,81 -108,130 -53,86 -141,246 -132,376z"/>
   <path class="fil2" d="M96 1224l444 1c8,-188 -111,-389 -240,-506 -33,-29 -96,-78 -143,-97l-61 602z"/>
   <path class="fil3" d="M1315 613c0,-39 6,-71 18,-98 8,-19 20,-37 35,-52 15,-16 32,-27 49,-35 24,-10 51,-15 82,-15 57,0 101,18 135,53 34,35 51,83 51,145 0,62 -17,110 -51,145 -33,35 -78,52 -134,52 -56,0 -101,-17 -135,-52 -33,-34 -50,-82 -50,-143zm79 -3c0,44 10,76 30,99 20,22 46,33 76,33 31,0 56,-11 76,-33 20,-22 29,-55 29,-100 0,-43 -9,-76 -28,-97 -19,-22 -45,-33 -77,-33 -31,0 -57,11 -76,33 -20,22 -30,55 -30,98z"/>
   <path id="1" class="fil3" d="M1724 678l75 -8c5,25 14,44 28,56 13,11 32,17 55,17 25,0 43,-5 56,-15 12,-11 19,-23 19,-37 0,-9 -3,-17 -8,-23 -6,-7 -15,-12 -28,-17 -9,-3 -29,-8 -61,-16 -41,-11 -70,-23 -86,-38 -24,-21 -35,-47 -35,-77 0,-19 5,-38 16,-55 11,-17 27,-29 47,-38 21,-9 46,-14 75,-14 48,0 84,11 108,32 24,21 36,49 37,85l-77 3c-3,-20 -10,-34 -21,-43 -10,-8 -26,-13 -48,-13 -22,0 -39,5 -52,14 -8,6 -12,14 -12,24 0,9 4,17 11,23 10,8 34,17 71,26 37,8 65,18 82,27 18,9 32,22 42,39 11,16 16,36 16,60 0,22 -6,43 -19,62 -12,19 -29,33 -51,42 -22,10 -50,14 -83,14 -48,0 -85,-11 -111,-33 -25,-22 -41,-55 -46,-97z"/>
   <polygon id="2" class="fil3" points="2098,801 2098,420 2213,420 2281,680 2349,420 2464,420 2464,801 2393,801 2393,501 2318,801 2244,801 2169,501 2169,801 "/>
   <path class="fil3" d="M1343 1000c0,-22 6,-39 18,-52 12,-13 27,-19 46,-19 13,0 24,3 34,9 10,6 17,14 23,25 5,10 7,22 7,36 0,13 -2,26 -8,36 -5,11 -13,19 -23,25 -10,5 -21,8 -33,8 -12,0 -24,-3 -34,-9 -10,-6 -17,-15 -22,-25 -5,-11 -8,-22 -8,-34zm18 1c0,16 5,29 13,38 9,9 20,14 33,14 14,0 24,-5 33,-14 9,-10 13,-23 13,-40 0,-11 -2,-21 -5,-29 -4,-8 -10,-14 -17,-19 -7,-4 -15,-6 -24,-6 -12,0 -23,4 -32,13 -9,8 -14,23 -14,43z"/>
   <path id="1" class="fil3" d="M1492 1066l0 -98 15 0 0 14c7,-10 18,-16 31,-16 6,0 11,1 16,4 5,2 9,4 11,8 3,3 4,7 5,12 1,3 1,8 1,16l0 60 -16 0 0 -59c0,-7 -1,-12 -2,-15 -1,-4 -4,-6 -7,-8 -3,-2 -7,-3 -11,-3 -7,0 -13,2 -19,6 -5,5 -7,13 -7,26l0 53 -17 0z"/>
   <polygon id="2" class="fil3" points="1596,1066 1596,931 1613,931 1613,1066 "/>
   <path id="3" class="fil3" d="M1638 950l0 -19 17 0 0 19 -17 0zm0 116l0 -98 17 0 0 98 -17 0z"/>
   <path id="4" class="fil3" d="M1680 1066l0 -98 15 0 0 14c7,-10 17,-16 31,-16 6,0 11,1 16,4 5,2 9,4 11,8 2,3 4,7 5,12 1,3 1,8 1,16l0 60 -17 0 0 -59c0,-7 0,-12 -1,-15 -2,-4 -4,-6 -7,-8 -3,-2 -7,-3 -12,-3 -7,0 -13,2 -18,6 -5,5 -7,13 -7,26l0 53 -17 0z"/>
   <path id="5" class="fil3" d="M1851 1034l17 3c-3,9 -8,17 -15,23 -7,5 -17,8 -28,8 -14,0 -25,-5 -34,-13 -8,-9 -12,-21 -12,-37 0,-16 4,-29 13,-38 8,-9 19,-14 32,-14 13,0 24,5 32,14 8,8 12,21 12,37 0,1 0,2 0,4l-72 0c0,11 3,19 9,25 5,6 12,8 20,8 6,0 11,-1 16,-4 4,-4 7,-9 10,-16zm-54 -26l54 0c-1,-8 -3,-15 -6,-19 -5,-6 -12,-9 -21,-9 -7,0 -14,2 -19,7 -5,6 -8,12 -8,21z"/>
   <path id="6" class="fil3" d="M1937 1023l17 -2c1,7 2,12 5,17 3,4 8,8 14,10 6,3 13,4 20,4 7,0 13,-1 18,-3 6,-2 9,-5 12,-8 3,-4 4,-7 4,-12 0,-4 -1,-7 -4,-11 -2,-3 -6,-5 -12,-8 -4,-1 -12,-3 -24,-6 -12,-3 -21,-6 -26,-8 -6,-4 -11,-8 -14,-13 -3,-5 -5,-11 -5,-17 0,-7 2,-13 6,-19 4,-6 9,-10 17,-13 7,-3 15,-5 24,-5 10,0 19,2 27,5 7,3 13,8 17,14 4,6 7,13 7,21l-17 2c-1,-9 -4,-15 -9,-20 -6,-4 -14,-6 -24,-6 -11,0 -18,2 -23,6 -5,4 -8,9 -8,14 0,5 2,9 5,12 4,3 13,6 27,10 15,3 25,6 30,8 8,4 14,8 17,14 4,5 6,12 6,19 0,7 -2,14 -6,20 -4,6 -10,11 -18,15 -8,3 -16,5 -26,5 -12,0 -22,-2 -30,-5 -8,-4 -15,-9 -20,-16 -4,-7 -7,-15 -7,-24z"/>
   <path id="7" class="fil3" d="M2066 1066l0 -135 17 0 0 49c7,-9 17,-14 29,-14 7,0 13,2 18,5 6,2 9,6 12,11 2,5 3,13 3,22l0 62 -17 0 0 -62c0,-8 -1,-14 -5,-18 -3,-4 -8,-5 -15,-5 -5,0 -9,1 -14,3 -4,3 -7,6 -9,11 -2,4 -2,10 -2,18l0 53 -17 0z"/>
   <path id="8" class="fil3" d="M2164 1017c0,-18 5,-31 15,-40 9,-7 19,-11 31,-11 13,0 24,5 33,13 8,9 12,21 12,37 0,12 -2,22 -5,29 -4,7 -10,13 -17,17 -7,4 -15,6 -23,6 -14,0 -25,-4 -33,-13 -9,-9 -13,-22 -13,-38zm17 0c0,13 3,22 8,28 6,6 13,9 21,9 8,0 15,-3 20,-9 6,-6 8,-16 8,-28 0,-12 -2,-22 -8,-28 -5,-6 -12,-9 -20,-9 -8,0 -15,3 -21,9 -5,6 -8,16 -8,28z"/>
   <path id="9" class="fil3" d="M2275 1103l0 -135 15 0 0 13c3,-5 7,-8 12,-11 4,-2 10,-4 16,-4 8,0 16,2 22,7 6,4 11,10 14,18 4,8 5,16 5,25 0,10 -2,19 -5,27 -4,8 -9,14 -16,19 -7,4 -14,6 -21,6 -6,0 -11,-1 -15,-4 -4,-2 -8,-5 -11,-8l0 47 -16 0zm15 -85c0,12 2,21 7,27 5,6 11,9 19,9 7,0 13,-3 18,-9 6,-6 8,-16 8,-29 0,-12 -2,-21 -7,-27 -5,-7 -12,-10 -19,-10 -7,0 -13,4 -18,10 -6,7 -8,16 -8,29z"/>
   <path id="10" class="fil3" d="M2379 1103l0 -135 15 0 0 13c4,-5 8,-8 12,-11 5,-2 10,-4 16,-4 9,0 16,2 22,7 7,4 11,10 15,18 3,8 4,16 4,25 0,10 -1,19 -5,27 -3,8 -9,14 -15,19 -7,4 -14,6 -22,6 -5,0 -10,-1 -15,-4 -4,-2 -8,-5 -10,-8l0 47 -17 0zm15 -85c0,12 3,21 8,27 5,6 11,9 18,9 7,0 14,-3 19,-9 5,-6 8,-16 8,-29 0,-12 -3,-21 -8,-27 -5,-7 -11,-10 -18,-10 -7,0 -13,4 -19,10 -5,7 -8,16 -8,29z"/>
   <path id="11" class="fil3" d="M2483 950l0 -19 17 0 0 19 -17 0zm0 116l0 -98 17 0 0 98 -17 0z"/>
   <path id="12" class="fil3" d="M2525 1066l0 -98 15 0 0 14c7,-10 17,-16 31,-16 6,0 11,1 16,4 5,2 9,4 11,8 2,3 4,7 5,12 1,3 1,8 1,16l0 60 -16 0 0 -59c0,-7 -1,-12 -2,-15 -2,-4 -4,-6 -7,-8 -3,-2 -7,-3 -12,-3 -7,0 -13,2 -18,6 -5,5 -7,13 -7,26l0 53 -17 0z"/>
   <path id="13" class="fil3" d="M2626 1074l16 2c1,5 3,9 6,11 4,3 10,4 17,4 7,0 13,-1 17,-4 5,-3 7,-7 9,-13 1,-3 1,-10 1,-21 -7,9 -16,13 -27,13 -13,0 -24,-5 -31,-15 -7,-9 -11,-21 -11,-34 0,-10 2,-18 5,-26 3,-8 8,-14 15,-18 6,-5 14,-7 22,-7 12,0 21,5 29,14l0 -12 15 0 0 85c0,15 -2,25 -5,32 -3,6 -8,11 -14,15 -7,3 -15,5 -25,5 -12,0 -21,-2 -28,-8 -7,-5 -11,-13 -11,-23zm14 -59c0,13 2,22 8,28 5,6 11,9 19,9 7,0 14,-3 19,-9 5,-5 7,-15 7,-27 0,-12 -2,-21 -8,-27 -5,-6 -11,-9 -19,-9 -7,0 -13,3 -18,9 -6,6 -8,15 -8,26z"/>
   <path id="14" class="fil3" d="M2788 1066l0 -135 26 0 32 96c3,8 5,15 6,19 2,-4 4,-12 8,-21l32 -94 24 0 0 135 -17 0 0 -113 -40 113 -16 0 -38 -115 0 115 -17 0z"/>
   <path id="15" class="fil3" d="M3006 1054c-6,5 -12,8 -18,11 -6,2 -12,3 -18,3 -11,0 -19,-3 -25,-8 -6,-5 -8,-12 -8,-20 0,-5 1,-9 3,-13 2,-4 5,-7 8,-9 4,-3 8,-5 12,-6 4,-1 8,-1 15,-2 13,-2 23,-4 29,-6 0,-2 1,-4 1,-4 0,-7 -2,-12 -5,-14 -4,-4 -11,-6 -19,-6 -8,0 -14,1 -17,4 -4,3 -7,8 -8,15l-17 -3c2,-7 4,-12 8,-16 3,-5 8,-8 14,-10 7,-2 14,-4 22,-4 9,0 16,1 21,3 5,2 9,5 11,8 3,3 4,6 5,11 1,3 1,8 1,15l0 22c0,15 1,25 1,29 1,4 2,8 4,12l-17 0c-2,-4 -3,-8 -3,-12zm-1 -37c-6,2 -15,5 -27,6 -7,1 -12,2 -15,3 -3,2 -5,3 -6,6 -2,2 -3,5 -3,8 0,4 2,8 5,11 4,2 8,4 15,4 6,0 12,-1 17,-4 5,-3 8,-7 11,-12 2,-3 2,-9 2,-16l1 -6z"/>
   <polygon id="16" class="fil3" points="3046,1066 3046,931 3063,931 3063,1066 "/>
   <polygon id="17" class="fil3" points="3088,1066 3088,931 3104,931 3104,1066 "/>
  </g>
 </g>
</svg>
