<?xml version="1.0" encoding="UTF-8"?>
<!DOCTYPE svg PUBLIC "-//W3C//DTD SVG 1.1//EN" "http://www.w3.org/Graphics/SVG/1.1/DTD/svg11.dtd">
<!-- Creator: CorelDRAW X7 -->
<svg xmlns="http://www.w3.org/2000/svg" xml:space="preserve" width="13.819in" height="3.542in" version="1.1" style="shape-rendering:geometricPrecision; text-rendering:geometricPrecision; image-rendering:optimizeQuality; fill-rule:evenodd; clip-rule:evenodd"
viewBox="0 0 13819 3542"
 xmlns:xlink="http://www.w3.org/1999/xlink">
 <defs>
  <style type="text/css">
   <![CDATA[
    .fil0 {fill:white}
    .fil1 {fill:white;fill-rule:nonzero}
   ]]>
  </style>
 </defs>
 <g id="Layer_x0020_1">
  <metadata id="CorelCorpID_0Corel-Layer"/>
  <g id="_421295056">
   <g id="_421992992">
    <path class="fil0" d="M1123 2150l0 -541c0,-15 18,-32 33,-32l802 0c15,0 32,17 32,32l0 549c0,120 -101,224 -237,224l-393 0c-131,0 -237,-99 -237,-232zm231 -1022c0,-194 218,-274 345,-151 37,37 61,82 61,151l0 256 -406 0 0 -256zm-194 62l0 194c-132,0 -231,109 -231,243l0 493c0,208 115,372 285,428 120,41 565,41 686,0 52,-18 114,-56 149,-89 79,-77 133,-183 133,-339l0 -493c0,-134 -97,-243 -230,-243 0,-196 21,-379 -95,-515 -158,-187 -443,-187 -600,0 -71,84 -97,171 -97,321z"/>
    <path class="fil0" d="M1459 1896c0,75 -13,187 25,230 58,73 170,36 170,-75 0,-123 26,-256 -105,-256 -48,0 -90,51 -90,101z"/>
    <path class="fil0" d="M802 2636c-93,-97 -220,-295 -285,-420 -13,-24 -19,-43 -32,-70 -59,-116 -104,-254 -134,-399l-198 0c62,298 181,564 345,811 32,46 150,199 189,239 66,65 120,123 189,182l0 -263c-22,-24 -46,-50 -74,-80z"/>
    <path class="fil0" d="M295 1229l0 -286c0,-52 24,-67 65,-80 45,-15 62,-28 97,-45 274,-142 330,-411 363,-436 12,-13 30,-20 53,-20l3 0 0 -187 -33 0c-188,0 -225,194 -272,276 -24,40 -50,75 -82,105 -151,152 -231,102 -330,219 -23,28 -51,86 -51,135 0,233 -9,433 15,650l194 0c-16,-112 -22,-225 -22,-331z"/>
    <path class="fil0" d="M1063 362l1175 0c55,0 68,26 83,63 11,34 26,69 43,99 52,88 119,169 200,233l0 -272c-32,-47 -51,-95 -77,-157 -30,-74 -116,-153 -216,-153l-1208 0 0 187z"/>
    <path class="fil0" d="M2819 936c0,248 4,435 -20,624l192 0c23,-206 15,-408 15,-650 0,-90 -73,-178 -155,-213 -41,-17 -71,-30 -101,-45l0 211c26,6 69,22 69,73z"/>
    <path class="fil0" d="M2631 2137c-39,81 -52,115 -101,199 -15,22 -24,39 -39,61 -41,69 -77,116 -127,179 -13,17 -28,36 -45,53 -20,20 -26,35 -45,54 -57,54 -107,104 -154,147l272 0c28,-30 54,-58 73,-80l142 -181c48,-69 82,-127 123,-202 63,-112 91,-181 136,-299 45,-112 75,-217 97,-321l-198 0c-24,99 -56,205 -104,321 -8,24 -17,48 -30,69z"/>
    <path class="fil0" d="M1831 3044c-43,26 -228,134 -272,134 -30,0 -110,-43 -138,-59 -132,-66 -244,-137 -358,-229l0 238c26,15 54,37 95,63 71,45 301,176 371,176l39 0c30,-2 50,-4 91,-19 144,-56 353,-185 474,-280l60 -50 -319 0c-15,9 -28,17 -43,26z"/>
   </g>
   <path class="fil1" d="M3702 1683l0 -845 274 0c104,0 171,5 203,13 48,13 89,40 121,83 33,42 49,97 49,164 0,52 -9,96 -28,131 -19,36 -43,63 -72,84 -28,20 -58,33 -88,40 -41,8 -99,12 -176,12l-111 0 0 318 -172 0zm172 -702l0 241 93 0c67,0 111,-5 134,-13 23,-9 40,-23 53,-42 13,-19 19,-41 19,-66 0,-31 -9,-56 -27,-76 -18,-20 -40,-33 -68,-38 -20,-4 -61,-6 -122,-6l-82 0zm571 429l166 -17c10,56 30,96 61,123 30,26 71,39 123,39 55,0 96,-12 124,-35 28,-23 42,-50 42,-81 0,-21 -6,-37 -18,-52 -12,-14 -32,-26 -61,-36 -20,-7 -65,-19 -136,-37 -91,-23 -155,-51 -192,-84 -52,-47 -77,-103 -77,-170 0,-44 12,-84 36,-122 24,-37 59,-66 105,-85 46,-20 101,-30 166,-30 106,0 185,23 239,71 53,47 81,109 84,188l-171 5c-8,-43 -23,-74 -47,-94 -24,-19 -59,-28 -107,-28 -49,0 -88,10 -116,30 -17,14 -26,31 -26,53 0,20 8,37 25,51 21,19 73,38 156,57 83,20 144,40 184,61 40,21 71,50 93,86 22,36 34,81 34,135 0,48 -14,93 -41,136 -27,42 -65,73 -114,94 -49,21 -110,31 -184,31 -106,0 -189,-25 -246,-74 -57,-49 -91,-121 -102,-215zm787 0l166 -17c10,56 30,96 61,123 30,26 72,39 123,39 55,0 96,-12 124,-35 28,-23 42,-50 42,-81 0,-21 -6,-37 -18,-52 -11,-14 -32,-26 -61,-36 -20,-7 -65,-19 -136,-37 -91,-23 -155,-51 -192,-84 -51,-47 -77,-103 -77,-170 0,-44 12,-84 36,-122 25,-37 60,-66 105,-85 46,-20 101,-30 166,-30 106,0 186,23 239,71 53,47 81,109 84,188l-171 5c-7,-43 -23,-74 -47,-94 -24,-19 -59,-28 -107,-28 -49,0 -88,10 -115,30 -18,14 -27,31 -27,53 0,20 8,37 25,51 21,19 74,38 156,57 83,20 144,40 184,61 40,21 71,50 93,86 23,36 34,81 34,135 0,48 -14,93 -41,136 -26,42 -64,73 -114,94 -49,21 -110,31 -184,31 -106,0 -188,-25 -246,-74 -57,-49 -91,-121 -102,-215zm-1548 1325l0 -634 240 0c42,0 74,2 96,6 31,5 57,15 79,30 21,14 38,35 50,61 13,26 20,55 20,86 0,54 -17,99 -52,136 -34,38 -96,56 -186,56l-162 0 0 259 -85 0zm85 -333l163 0c55,0 93,-10 116,-30 23,-21 34,-49 34,-86 0,-26 -7,-49 -20,-68 -14,-18 -31,-31 -53,-37 -14,-4 -40,-6 -78,-6l-162 0 0 227zm809 184l81 11c-13,46 -36,83 -70,109 -34,25 -78,38 -131,38 -67,0 -120,-20 -160,-61 -39,-42 -59,-100 -59,-174 0,-77 20,-137 60,-179 40,-43 91,-64 154,-64 62,0 112,20 150,62 39,42 59,101 59,176 0,5 -1,12 -1,21l-342 0c3,50 17,89 43,116 25,26 57,40 96,40 28,0 52,-8 72,-23 21,-15 37,-39 48,-72zm-254 -125l255 0c-3,-38 -13,-67 -29,-87 -25,-30 -57,-45 -96,-45 -36,0 -66,12 -90,36 -24,24 -38,56 -40,96zm432 274l0 -460 70 0 0 71c18,-33 35,-54 50,-65 15,-10 32,-15 50,-15 26,0 53,8 80,24l-28 72c-19,-11 -37,-16 -56,-16 -17,0 -32,5 -46,16 -13,10 -23,24 -29,42 -8,28 -13,58 -13,91l0 240 -78 0zm265 -137l77 -13c4,31 17,55 36,71 20,16 48,25 83,25 36,0 63,-7 80,-22 17,-15 26,-32 26,-51 0,-18 -8,-32 -23,-42 -11,-7 -38,-15 -80,-26 -57,-14 -96,-27 -118,-37 -22,-11 -39,-25 -50,-44 -12,-18 -18,-39 -18,-61 0,-21 5,-40 14,-57 10,-18 23,-32 39,-44 12,-8 28,-16 49,-22 21,-6 43,-9 67,-9 36,0 68,5 95,15 27,11 47,25 60,42 13,18 22,42 27,72l-76 10c-4,-23 -14,-42 -30,-56 -17,-13 -40,-20 -70,-20 -36,0 -61,6 -76,18 -16,12 -23,26 -23,42 0,10 3,19 9,27 6,8 16,15 30,20 8,3 30,10 68,20 55,15 94,27 116,36 21,10 38,23 51,41 12,18 19,40 19,67 0,25 -8,50 -23,73 -15,23 -37,40 -66,53 -28,12 -61,18 -97,18 -59,0 -105,-12 -136,-37 -31,-24 -51,-61 -60,-109zm444 -93c0,-85 24,-148 71,-188 40,-34 88,-51 145,-51 63,0 114,20 155,62 40,41 60,98 60,171 0,59 -9,105 -27,139 -18,33 -43,60 -77,78 -34,19 -71,28 -111,28 -64,0 -116,-20 -156,-61 -40,-41 -60,-101 -60,-178zm80 0c0,59 13,103 39,132 25,29 58,44 97,44 38,0 71,-15 96,-44 26,-30 39,-74 39,-134 0,-57 -13,-100 -39,-129 -26,-29 -58,-44 -96,-44 -39,0 -72,15 -97,44 -26,29 -39,73 -39,131zm442 230l0 -460 70 0 0 66c34,-50 82,-75 146,-75 27,0 53,5 76,15 23,9 41,23 52,39 12,16 20,35 24,57 3,14 5,40 5,76l0 282 -78 0 0 -279c0,-32 -3,-56 -9,-71 -6,-16 -17,-29 -32,-38 -16,-9 -34,-14 -55,-14 -33,0 -61,10 -85,31 -24,21 -36,61 -36,120l0 251 -78 0zm792 -58c-29,25 -57,42 -83,52 -27,10 -56,15 -86,15 -51,0 -89,-12 -117,-36 -27,-25 -40,-56 -40,-95 0,-22 5,-42 15,-61 10,-19 24,-33 40,-45 17,-11 36,-19 56,-25 16,-4 39,-8 70,-12 63,-7 109,-16 139,-26 0,-11 0,-18 0,-21 0,-31 -7,-54 -22,-66 -20,-18 -50,-27 -89,-27 -37,0 -64,7 -81,20 -18,12 -31,35 -39,68l-76 -11c7,-32 18,-59 34,-79 16,-20 39,-35 69,-46 30,-11 65,-16 105,-16 39,0 71,4 96,13 24,10 42,21 54,35 11,14 19,32 24,53 3,14 4,38 4,72l0 103c0,72 1,118 5,137 3,20 9,38 19,56l-82 0c-8,-17 -13,-36 -15,-58zm-6 -172c-28,11 -71,21 -127,29 -33,4 -55,10 -69,15 -13,6 -23,14 -30,25 -7,11 -11,24 -11,37 0,21 8,38 23,52 16,13 39,20 70,20 29,0 56,-6 80,-19 23,-13 40,-31 51,-54 8,-17 13,-43 13,-77l0 -28zm197 230l0 -634 78 0 0 634 -78 0zm426 -204l79 -7c4,32 13,58 26,79 14,20 35,36 64,49 29,13 61,19 97,19 32,0 60,-5 85,-14 24,-10 42,-23 54,-40 12,-16 18,-34 18,-54 0,-20 -5,-37 -17,-52 -11,-15 -30,-27 -57,-37 -17,-7 -55,-17 -113,-31 -58,-14 -99,-27 -122,-40 -30,-16 -53,-35 -67,-59 -15,-23 -23,-50 -23,-79 0,-32 9,-62 28,-90 18,-27 44,-48 79,-63 35,-14 74,-22 116,-22 47,0 89,8 124,23 36,15 64,37 83,67 20,29 30,63 31,100l-80 6c-4,-40 -19,-70 -44,-91 -25,-20 -62,-30 -110,-30 -51,0 -88,9 -111,28 -24,18 -35,41 -35,67 0,23 8,41 24,56 17,15 59,30 127,45 68,16 115,29 140,41 37,17 64,38 82,64 17,26 26,56 26,90 0,34 -10,65 -29,95 -19,30 -47,53 -83,70 -36,16 -77,24 -122,24 -57,0 -105,-8 -144,-25 -39,-16 -69,-41 -91,-75 -22,-34 -33,-71 -35,-114zm922 55l80 11c-12,46 -36,83 -70,109 -34,25 -78,38 -131,38 -67,0 -120,-20 -159,-61 -40,-42 -59,-100 -59,-174 0,-77 20,-137 59,-179 40,-43 91,-64 155,-64 61,0 111,20 150,62 38,42 58,101 58,176 0,5 0,12 0,21l-343 0c3,50 18,89 43,116 26,26 58,40 96,40 28,0 53,-8 73,-23 20,-15 36,-39 48,-72zm-255 -125l256 0c-4,-38 -14,-67 -30,-87 -24,-30 -57,-45 -96,-45 -36,0 -66,12 -90,36 -24,24 -38,56 -40,96zm734 106l76 10c-9,53 -30,93 -64,123 -35,30 -77,44 -127,44 -63,0 -113,-20 -151,-61 -38,-41 -57,-100 -57,-176 0,-50 8,-93 24,-130 17,-37 42,-65 75,-83 34,-19 70,-28 110,-28 49,0 90,12 122,37 32,26 52,61 61,108l-75 11c-8,-31 -20,-54 -39,-69 -18,-16 -40,-24 -66,-24 -39,0 -71,14 -96,42 -24,29 -37,73 -37,134 0,61 12,106 36,134 23,28 54,42 92,42 31,0 56,-10 77,-28 20,-19 33,-48 39,-86zm442 168l0 -69c-35,53 -84,78 -145,78 -27,0 -52,-5 -76,-15 -23,-10 -41,-23 -52,-39 -11,-16 -19,-35 -24,-58 -3,-15 -5,-39 -5,-72l0 -285 78 0 0 255c0,40 2,68 5,82 5,20 15,36 31,48 16,11 35,17 59,17 23,0 45,-6 65,-18 21,-12 35,-28 44,-48 8,-21 12,-51 12,-90l0 -246 78 0 0 460 -70 0zm192 0l0 -460 70 0 0 71c17,-33 34,-54 49,-65 15,-10 32,-15 50,-15 26,0 53,8 80,24l-28 72c-18,-11 -37,-16 -56,-16 -17,0 -32,5 -46,16 -13,10 -23,24 -29,42 -8,28 -12,58 -12,91l0 240 -78 0zm295 -545l0 -89 78 0 0 89 -78 0zm0 545l0 -460 78 0 0 460 -78 0zm366 -70l11 69c-22,5 -42,7 -59,7 -28,0 -50,-4 -66,-13 -15,-9 -26,-21 -32,-36 -7,-14 -10,-45 -10,-92l0 -264 -57 0 0 -61 57 0 0 -113 78 -47 0 160 78 0 0 61 -78 0 0 269c0,22 1,36 4,43 3,6 7,11 13,15 7,3 16,5 27,5 9,0 20,-1 34,-3zm73 246l-9 -72c18,5 32,7 45,7 17,0 31,-3 42,-8 10,-6 19,-14 25,-25 5,-7 13,-27 24,-58 1,-4 4,-10 7,-19l-174 -461 83 0 96 266c12,33 23,68 33,106 9,-35 20,-70 32,-104l98 -268 78 0 -174 468c-19,50 -33,85 -44,104 -13,25 -29,44 -47,56 -18,12 -40,18 -64,18 -15,0 -32,-3 -51,-10zm675 -380l78 -7c4,32 13,58 26,79 14,20 35,36 64,49 29,13 61,19 97,19 32,0 61,-5 85,-14 25,-10 43,-23 55,-40 12,-16 18,-34 18,-54 0,-20 -6,-37 -18,-52 -11,-15 -30,-27 -57,-37 -17,-7 -54,-17 -113,-31 -58,-14 -99,-27 -122,-40 -30,-16 -52,-35 -67,-59 -15,-23 -23,-50 -23,-79 0,-32 10,-62 28,-90 18,-27 44,-48 79,-63 35,-14 74,-22 117,-22 46,0 88,8 124,23 36,15 63,37 82,67 20,29 30,63 32,100l-81 6c-4,-40 -19,-70 -44,-91 -25,-20 -62,-30 -110,-30 -51,0 -88,9 -111,28 -23,18 -35,41 -35,67 0,23 8,41 25,56 16,15 58,30 126,45 68,16 115,29 140,41 37,17 64,38 82,64 18,26 26,56 26,90 0,34 -9,65 -29,95 -19,30 -47,53 -83,70 -36,16 -76,24 -122,24 -57,0 -105,-8 -144,-25 -38,-16 -69,-41 -91,-75 -22,-34 -33,-71 -34,-114zm921 55l81 11c-13,46 -36,83 -71,109 -34,25 -78,38 -131,38 -67,0 -120,-20 -159,-61 -39,-42 -59,-100 -59,-174 0,-77 20,-137 59,-179 40,-43 92,-64 155,-64 61,0 111,20 150,62 39,42 58,101 58,176 0,5 0,12 0,21l-342 0c3,50 17,89 42,116 26,26 58,40 96,40 29,0 53,-8 73,-23 20,-15 36,-39 48,-72zm-255 -125l256 0c-4,-38 -13,-67 -29,-87 -25,-30 -57,-45 -97,-45 -35,0 -65,12 -90,36 -24,24 -37,56 -40,96zm433 274l0 -460 70 0 0 71c18,-33 34,-54 50,-65 15,-10 31,-15 50,-15 26,0 52,8 80,24l-28 72c-19,-11 -38,-16 -57,-16 -17,0 -32,5 -45,16 -14,10 -23,24 -29,42 -9,28 -13,58 -13,91l0 240 -78 0zm421 0l-173 -460 83 0 98 275c11,30 21,61 30,93 7,-24 16,-53 29,-87l102 -281 80 0 -174 460 -75 0zm317 -545l0 -89 78 0 0 89 -78 0zm0 545l0 -460 78 0 0 460 -78 0zm497 -168l76 10c-8,53 -30,93 -64,123 -34,30 -77,44 -127,44 -62,0 -113,-20 -151,-61 -38,-41 -57,-100 -57,-176 0,-50 8,-93 24,-130 17,-37 42,-65 75,-83 34,-19 70,-28 110,-28 50,0 90,12 122,37 32,26 52,61 61,108l-75 11c-8,-31 -20,-54 -39,-69 -18,-16 -40,-24 -66,-24 -39,0 -71,14 -96,42 -24,29 -36,73 -36,134 0,61 11,106 35,134 24,28 54,42 92,42 31,0 57,-10 77,-28 20,-19 33,-48 39,-86zm456 19l80 11c-12,46 -36,83 -70,109 -34,25 -78,38 -131,38 -67,0 -120,-20 -159,-61 -40,-42 -59,-100 -59,-174 0,-77 20,-137 59,-179 40,-43 91,-64 155,-64 61,0 111,20 150,62 38,42 58,101 58,176 0,5 0,12 0,21l-343 0c3,50 18,89 43,116 26,26 58,40 96,40 28,0 53,-8 73,-23 20,-15 36,-39 48,-72zm-255 -125l256 0c-4,-38 -14,-67 -30,-87 -24,-30 -57,-45 -96,-45 -36,0 -66,12 -90,36 -24,24 -38,56 -40,96z"/>
  </g>
 </g>
</svg>
