<svg width="384" height="384" viewBox="0 0 384 384" fill="none" xmlns="http://www.w3.org/2000/svg">
<path fill-rule="evenodd" clip-rule="evenodd" d="M150.432 228.384V176.448C150.432 175.008 152.16 173.376 153.6 173.376H230.496C231.936 173.376 233.568 175.008 233.568 176.448V229.056C233.568 240.576 223.872 250.56 210.816 250.56H173.184C160.608 250.56 150.432 241.056 150.432 228.384ZM172.608 130.368C172.608 111.744 193.44 104.064 205.632 115.872C209.184 119.424 211.488 123.744 211.488 130.368V154.944H172.608V130.368ZM153.984 136.32V154.944C141.312 154.944 131.808 165.312 131.808 178.176V225.504C131.808 245.376 142.848 261.12 159.168 266.496C170.688 270.432 213.312 270.432 224.928 266.496C229.92 264.768 235.872 261.12 239.232 257.952C246.816 250.56 252 240.384 252 225.504V178.176C252 165.312 242.688 154.944 229.92 154.944C229.92 136.128 231.936 118.56 220.8 105.504C205.632 87.5519 178.368 87.5519 163.296 105.504C156.48 113.568 153.984 121.92 153.984 136.32Z" fill="#511061"/>
<path fill-rule="evenodd" clip-rule="evenodd" d="M182.688 204C182.688 211.2 181.44 221.952 184.992 226.08C190.56 232.992 201.312 229.44 201.312 218.88C201.312 207.072 203.808 194.304 191.232 194.304C186.624 194.304 182.688 199.2 182.688 204Z" fill="black"/>
<path fill-rule="evenodd" clip-rule="evenodd" d="M119.616 274.944C110.784 265.632 98.5917 246.624 92.3517 234.624C91.1037 232.32 90.5277 230.496 89.2797 228C83.6157 216.864 79.2957 203.616 76.4157 189.696H57.4077C63.3597 218.304 74.7837 243.744 90.5277 267.456C93.5997 271.872 104.928 286.56 108.672 290.4C114.912 296.64 120.096 302.208 126.72 307.776V282.624C124.608 280.32 122.304 277.824 119.616 274.944Z" fill="#373435"/>
<path fill-rule="evenodd" clip-rule="evenodd" d="M71.0399 140.064V112.608C71.0399 107.616 73.3439 106.176 77.2799 104.928C81.5999 103.488 83.2319 102.24 86.5919 100.608C112.8 86.976 118.176 61.248 121.344 58.848C122.496 57.6 124.224 56.928 126.432 56.928H126.72V38.976H123.552C105.6 38.976 102.048 57.6 97.5359 65.472C95.2319 69.312 92.7359 72.672 89.6639 75.552C75.1679 90.048 67.4879 85.248 57.9839 96.48C55.7759 99.168 53.0879 104.736 53.0879 109.44C53.0879 131.808 52.2239 151.008 54.5279 171.744H73.1519C71.6159 160.992 71.0399 150.24 71.0399 140.064Z" fill="#373435"/>
<path fill-rule="evenodd" clip-rule="evenodd" d="M144.672 56.928H257.376C262.56 56.928 263.808 59.424 265.248 62.976C266.304 66.24 267.744 69.6 269.376 72.48C274.368 80.928 280.8 88.608 288.576 94.752V68.736C285.504 64.224 283.68 59.616 281.184 53.664C278.304 46.56 270.048 38.976 260.448 38.976H144.672V56.928Z" fill="#373435"/>
<path fill-rule="evenodd" clip-rule="evenodd" d="M313.056 111.936C313.056 135.744 313.44 153.696 311.136 171.744H329.568C331.68 152.064 331.008 132.672 331.008 109.44C331.008 100.8 324 92.352 316.128 88.992C312.192 87.36 309.312 86.112 306.432 84.672V104.928C308.928 105.504 313.056 107.04 313.056 111.936Z" fill="#373435"/>
<path fill-rule="evenodd" clip-rule="evenodd" d="M295.008 227.136C291.264 234.816 290.016 238.08 285.312 246.144C283.872 248.256 283.008 249.888 281.568 252C277.632 258.624 274.176 263.136 269.376 269.184C268.128 270.816 266.688 272.64 265.056 274.272C263.136 276.192 262.56 277.632 260.736 279.456C255.36 284.64 250.56 289.44 246.048 293.568H272.064C274.752 290.688 277.248 288 279.072 285.888L292.704 268.512C297.312 261.888 300.576 256.32 304.512 249.12C310.56 238.368 313.248 231.744 317.568 220.512C321.888 209.76 324.768 199.68 326.88 189.696H307.872C305.568 199.2 302.496 209.376 297.888 220.512C297.12 222.816 296.256 225.12 295.008 227.136Z" fill="#373435"/>
<path fill-rule="evenodd" clip-rule="evenodd" d="M218.304 314.016C214.176 316.512 196.416 326.88 192.192 326.88C189.312 326.88 181.728 322.752 179.04 321.216C166.368 314.88 155.616 308.064 144.672 299.328V322.08C147.168 323.52 149.856 325.632 153.792 328.128C160.608 332.448 182.688 345.024 189.312 345.024H193.056C195.936 344.832 197.856 344.64 201.792 343.2C215.616 337.824 235.68 325.44 247.296 316.32L253.056 311.52H222.432C220.992 312.384 219.744 313.152 218.304 314.016Z" fill="#373435"/>
</svg>
